<svg id="visual" viewBox="0 0 900 600" width="900" height="600" xmlns="http://www.w3.org/2000/svg" xmlns:xlink="http://www.w3.org/1999/xlink" version="1.1"><rect x="0" y="0" width="900" height="600" fill="#382b40"></rect><path d="M0 387L39 387L39 417L78 417L78 451L117 451L117 375L157 375L157 416L196 416L196 414L235 414L235 462L274 462L274 400L313 400L313 466L352 466L352 472L391 472L391 406L430 406L430 382L470 382L470 442L509 442L509 402L548 402L548 400L587 400L587 417L626 417L626 380L665 380L665 405L704 405L704 449L743 449L743 445L783 445L783 387L822 387L822 407L861 407L861 457L900 457L900 432L900 601L900 601L861 601L861 601L822 601L822 601L783 601L783 601L743 601L743 601L704 601L704 601L665 601L665 601L626 601L626 601L587 601L587 601L548 601L548 601L509 601L509 601L470 601L470 601L430 601L430 601L391 601L391 601L352 601L352 601L313 601L313 601L274 601L274 601L235 601L235 601L196 601L196 601L157 601L157 601L117 601L117 601L78 601L78 601L39 601L39 601L0 601Z" fill="#34008f"></path><path d="M0 444L39 444L39 394L78 394L78 409L117 409L117 423L157 423L157 403L196 403L196 443L235 443L235 410L274 410L274 428L313 428L313 443L352 443L352 469L391 469L391 457L430 457L430 455L470 455L470 427L509 427L509 446L548 446L548 446L587 446L587 440L626 440L626 406L665 406L665 411L704 411L704 425L743 425L743 450L783 450L783 435L822 435L822 435L861 435L861 416L900 416L900 484L900 601L900 601L861 601L861 601L822 601L822 601L783 601L783 601L743 601L743 601L704 601L704 601L665 601L665 601L626 601L626 601L587 601L587 601L548 601L548 601L509 601L509 601L470 601L470 601L430 601L430 601L391 601L391 601L352 601L352 601L313 601L313 601L274 601L274 601L235 601L235 601L196 601L196 601L157 601L157 601L117 601L117 601L78 601L78 601L39 601L39 601L0 601Z" fill="#4c1c98"></path><path d="M0 463L39 463L39 443L78 443L78 438L117 438L117 443L157 443L157 470L196 470L196 451L235 451L235 438L274 438L274 488L313 488L313 483L352 483L352 485L391 485L391 432L430 432L430 437L470 437L470 486L509 486L509 419L548 419L548 440L587 440L587 420L626 420L626 485L665 485L665 427L704 427L704 472L743 472L743 460L783 460L783 444L822 444L822 443L861 443L861 481L900 481L900 473L900 601L900 601L861 601L861 601L822 601L822 601L783 601L783 601L743 601L743 601L704 601L704 601L665 601L665 601L626 601L626 601L587 601L587 601L548 601L548 601L509 601L509 601L470 601L470 601L430 601L430 601L391 601L391 601L352 601L352 601L313 601L313 601L274 601L274 601L235 601L235 601L196 601L196 601L157 601L157 601L117 601L117 601L78 601L78 601L39 601L39 601L0 601Z" fill="#6031a0"></path><path d="M0 447L39 447L39 450L78 450L78 451L117 451L117 458L157 458L157 477L196 477L196 438L235 438L235 452L274 452L274 460L313 460L313 445L352 445L352 455L391 455L391 465L430 465L430 445L470 445L470 453L509 453L509 484L548 484L548 463L587 463L587 504L626 504L626 472L665 472L665 472L704 472L704 466L743 466L743 472L783 472L783 445L822 445L822 440L861 440L861 453L900 453L900 432L900 601L900 601L861 601L861 601L822 601L822 601L783 601L783 601L743 601L743 601L704 601L704 601L665 601L665 601L626 601L626 601L587 601L587 601L548 601L548 601L509 601L509 601L470 601L470 601L430 601L430 601L391 601L391 601L352 601L352 601L313 601L313 601L274 601L274 601L235 601L235 601L196 601L196 601L157 601L157 601L117 601L117 601L78 601L78 601L39 601L39 601L0 601Z" fill="#7345a9"></path><path d="M0 517L39 517L39 497L78 497L78 508L117 508L117 493L157 493L157 454L196 454L196 511L235 511L235 508L274 508L274 495L313 495L313 479L352 479L352 478L391 478L391 517L430 517L430 508L470 508L470 477L509 477L509 487L548 487L548 489L587 489L587 462L626 462L626 483L665 483L665 473L704 473L704 517L743 517L743 477L783 477L783 488L822 488L822 480L861 480L861 484L900 484L900 507L900 601L900 601L861 601L861 601L822 601L822 601L783 601L783 601L743 601L743 601L704 601L704 601L665 601L665 601L626 601L626 601L587 601L587 601L548 601L548 601L509 601L509 601L470 601L470 601L430 601L430 601L391 601L391 601L352 601L352 601L313 601L313 601L274 601L274 601L235 601L235 601L196 601L196 601L157 601L157 601L117 601L117 601L78 601L78 601L39 601L39 601L0 601Z" fill="#8458b2"></path><path d="M0 470L39 470L39 503L78 503L78 470L117 470L117 471L157 471L157 470L196 470L196 529L235 529L235 473L274 473L274 475L313 475L313 521L352 521L352 482L391 482L391 524L430 524L430 525L470 525L470 475L509 475L509 525L548 525L548 517L587 517L587 519L626 519L626 490L665 490L665 491L704 491L704 504L743 504L743 479L783 479L783 521L822 521L822 520L861 520L861 506L900 506L900 478L900 601L900 601L861 601L861 601L822 601L822 601L783 601L783 601L743 601L743 601L704 601L704 601L665 601L665 601L626 601L626 601L587 601L587 601L548 601L548 601L509 601L509 601L470 601L470 601L430 601L430 601L391 601L391 601L352 601L352 601L313 601L313 601L274 601L274 601L235 601L235 601L196 601L196 601L157 601L157 601L117 601L117 601L78 601L78 601L39 601L39 601L0 601Z" fill="#956cbb"></path><path d="M0 498L39 498L39 516L78 516L78 517L117 517L117 517L157 517L157 530L196 530L196 525L235 525L235 520L274 520L274 509L313 509L313 532L352 532L352 489L391 489L391 489L430 489L430 533L470 533L470 507L509 507L509 514L548 514L548 538L587 538L587 509L626 509L626 491L665 491L665 496L704 496L704 531L743 531L743 489L783 489L783 522L822 522L822 493L861 493L861 528L900 528L900 515L900 601L900 601L861 601L861 601L822 601L822 601L783 601L783 601L743 601L743 601L704 601L704 601L665 601L665 601L626 601L626 601L587 601L587 601L548 601L548 601L509 601L509 601L470 601L470 601L430 601L430 601L391 601L391 601L352 601L352 601L313 601L313 601L274 601L274 601L235 601L235 601L196 601L196 601L157 601L157 601L117 601L117 601L78 601L78 601L39 601L39 601L0 601Z" fill="#a580c4"></path><path d="M0 530L39 530L39 510L78 510L78 521L117 521L117 510L157 510L157 523L196 523L196 512L235 512L235 538L274 538L274 534L313 534L313 527L352 527L352 528L391 528L391 539L430 539L430 540L470 540L470 544L509 544L509 521L548 521L548 513L587 513L587 510L626 510L626 548L665 548L665 547L704 547L704 532L743 532L743 517L783 517L783 509L822 509L822 541L861 541L861 550L900 550L900 524L900 601L900 601L861 601L861 601L822 601L822 601L783 601L783 601L743 601L743 601L704 601L704 601L665 601L665 601L626 601L626 601L587 601L587 601L548 601L548 601L509 601L509 601L470 601L470 601L430 601L430 601L391 601L391 601L352 601L352 601L313 601L313 601L274 601L274 601L235 601L235 601L196 601L196 601L157 601L157 601L117 601L117 601L78 601L78 601L39 601L39 601L0 601Z" fill="#b495cd"></path><path d="M0 559L39 559L39 551L78 551L78 540L117 540L117 542L157 542L157 560L196 560L196 549L235 549L235 561L274 561L274 528L313 528L313 551L352 551L352 539L391 539L391 533L430 533L430 527L470 527L470 546L509 546L509 527L548 527L548 543L587 543L587 557L626 557L626 557L665 557L665 552L704 552L704 527L743 527L743 533L783 533L783 538L822 538L822 543L861 543L861 530L900 530L900 556L900 601L900 601L861 601L861 601L822 601L822 601L783 601L783 601L743 601L743 601L704 601L704 601L665 601L665 601L626 601L626 601L587 601L587 601L548 601L548 601L509 601L509 601L470 601L470 601L430 601L430 601L391 601L391 601L352 601L352 601L313 601L313 601L274 601L274 601L235 601L235 601L196 601L196 601L157 601L157 601L117 601L117 601L78 601L78 601L39 601L39 601L0 601Z" fill="#c4a9d6"></path><path d="M0 562L39 562L39 553L78 553L78 556L117 556L117 556L157 556L157 557L196 557L196 547L235 547L235 560L274 560L274 557L313 557L313 571L352 571L352 553L391 553L391 572L430 572L430 564L470 564L470 551L509 551L509 546L548 546L548 560L587 560L587 573L626 573L626 557L665 557L665 562L704 562L704 555L743 555L743 545L783 545L783 556L822 556L822 565L861 565L861 561L900 561L900 565L900 601L900 601L861 601L861 601L822 601L822 601L783 601L783 601L743 601L743 601L704 601L704 601L665 601L665 601L626 601L626 601L587 601L587 601L548 601L548 601L509 601L509 601L470 601L470 601L430 601L430 601L391 601L391 601L352 601L352 601L313 601L313 601L274 601L274 601L235 601L235 601L196 601L196 601L157 601L157 601L117 601L117 601L78 601L78 601L39 601L39 601L0 601Z" fill="#d2bfe0"></path><path d="M0 570L39 570L39 584L78 584L78 567L117 567L117 565L157 565L157 567L196 567L196 570L235 570L235 583L274 583L274 575L313 575L313 577L352 577L352 573L391 573L391 565L430 565L430 578L470 578L470 571L509 571L509 579L548 579L548 580L587 580L587 568L626 568L626 572L665 572L665 574L704 574L704 583L743 583L743 568L783 568L783 581L822 581L822 578L861 578L861 575L900 575L900 583L900 601L900 601L861 601L861 601L822 601L822 601L783 601L783 601L743 601L743 601L704 601L704 601L665 601L665 601L626 601L626 601L587 601L587 601L548 601L548 601L509 601L509 601L470 601L470 601L430 601L430 601L391 601L391 601L352 601L352 601L313 601L313 601L274 601L274 601L235 601L235 601L196 601L196 601L157 601L157 601L117 601L117 601L78 601L78 601L39 601L39 601L0 601Z" fill="#e1d4e9"></path></svg>