<svg version="1.1" xmlns="http://www.w3.org/2000/svg" xmlns:xlink="http://www.w3.org/1999/xlink" width="393.61812" height="399.23003" viewBox="0,0,393.61812,399.23003"><g transform="translate(-123.19094,19.61502)"><g data-paper-data="{&quot;isPaintingLayer&quot;:true}" fill-rule="nonzero" stroke-linecap="round" stroke-linejoin="round" stroke-dasharray="" stroke-dashoffset="0" style="mix-blend-mode: normal"><path d="M510.35983,248.50051c-23.69044,150.60062 -144.17744,131.11848 -260.69712,117.64311c-116.51968,-13.47538 -138.35329,-51.02576 -114.81967,-157.1712c23.53361,-106.14544 98.96043,-182.39218 220.22789,-179.75867c121.26746,2.63352 178.97934,68.68614 155.2889,219.28676z" fill="#f7aa32" stroke="none" stroke-width="1.99937" stroke-miterlimit="10"/><path d="M460.47915,335.08584c26.41782,25.21419 -93.14861,61.36062 -219.28674,35.7635c-126.13814,-25.59712 -121.41268,-83.02468 -115.76082,-111.99625c5.65186,-28.97156 100.71174,-58.58888 181.64096,-35.76349c80.92922,22.82539 107.35667,77.34924 153.4066,111.99624z" fill="#fbede4" stroke="none" stroke-width="1.99937" stroke-miterlimit="10"/><path d="M239.23435,147.20242c-1.99458,16.51293 -13.23271,29.51449 -27.76971,28.81468c-14.53701,-0.69981 -29.26997,-15.30753 -24.87345,-31.34891c4.87999,-17.80539 19.41155,-27.06727 27.76971,-28.81469c20.80171,-4.34896 27.09697,12.94054 24.87345,31.34892z" fill="#2c2c2b" stroke="none" stroke-width="1.99937" stroke-miterlimit="10"/><path d="M284.4417,218.51398c-2.42895,16.45465 -12.49917,27.1631 -29.13213,27.1631c-16.63296,0 -29.73322,-13.4881 -30.11663,-30.11664c-0.35911,-15.57464 14.34117,-27.54414 30.97413,-27.54414c16.63295,0 30.19077,17.51694 28.27463,30.49768z" fill="#2c2c2b" stroke="none" stroke-width="1.99937" stroke-miterlimit="10"/><path d="M299.54339,261.67653c-24.221,2.52979 -52.87481,13.32229 -47.99839,-27.2932c-10.4804,34.37231 -27.3898,25.57555 -42.35152,21.64633" fill="none" stroke="#2c2c2b" stroke-width="18" stroke-miterlimit="4"/><path d="M351.834,158.44863c-1.99458,16.51293 -13.23271,29.51449 -27.76971,28.81468c-14.53701,-0.69981 -29.26997,-15.30753 -24.87345,-31.34891c4.87999,-17.80539 19.41155,-27.06727 27.76971,-28.81469c20.80171,-4.34896 27.09697,12.94054 24.87345,31.34892z" fill="#2c2c2b" stroke="none" stroke-width="1.99937" stroke-miterlimit="10"/><path d="M333.51395,30.92905l-118.14722,44.59862c3.82465,-29.99322 22.2258,-85.82888 52.42294,-93.89183c30.19713,-8.06294 51.61084,24.54586 65.72428,49.29321z" fill="#f7aa32" stroke="none" stroke-width="18" stroke-miterlimit="4"/><path d="M425.84091,41.10067c21.81389,-12.58783 49.69346,-38.39999 75.11347,-17.99594c25.42001,20.40406 14.39357,68.58096 7.04188,103.28102z" fill="#f7aa32" stroke="none" stroke-width="18" stroke-miterlimit="4"/></g></g></svg>