<svg version="1.1" xmlns="http://www.w3.org/2000/svg" xmlns:xlink="http://www.w3.org/1999/xlink" width="643.58097" height="361.56083" viewBox="0,0,643.58097,361.56083"><g transform="translate(1.00343,0.47357)"><g data-paper-data="{&quot;isPaintingLayer&quot;:true}" fill-rule="nonzero" stroke-dasharray="" stroke-dashoffset="0" style="mix-blend-mode: normal"><path d="M-1.00342,359.8868v-360.36036h640.64564v360.36036z" fill="#ffbba1" stroke="#2c2c2b" stroke-width="0" stroke-linecap="butt" stroke-linejoin="miter" stroke-miterlimit="10"/><path d="M193.77778,14.91592v2c-6.07513,0 -11,4.92487 -11,11c0,1.94 1.16,4.75 2.53,6.11l2.36,2.36c1.8885,2.04608 2.36902,5.02374 1.22,7.56l-0.43,0.84c-1.35915,2.43315 -3.8763,3.99407 -6.66,4.13h-35.02v35.02c0.13623,2.02654 1.27221,3.85236 3.03,4.87l0.84,0.43c1.58,0.79 4,0.4 5.24,-0.85l2.36,-2.36c2.06713,-1.8759 4.72183,-2.97526 7.51,-3.11c7.1797,-0.00553 13.00447,5.8103 13.01,12.99c0.00553,7.1797 -5.8103,13.00448 -12.99,13.01c-2.79587,-0.12684 -5.45947,-1.22695 -7.53,-3.11l-2.36,-2.36c-1.432,-1.2798 -3.47687,-1.61151 -5.24,-0.85l-0.84,0.43c-1.75779,1.01765 -2.89377,2.84346 -3.03,4.87v35.02h35.02c2.7837,0.13592 5.30085,1.69685 6.66,4.13l0.43,0.84c1.15456,2.53552 0.67352,5.51637 -1.22,7.56l-2.36,2.36c-1.50778,1.69337 -2.39931,3.84642 -2.53,6.11c0,6.07513 4.92487,11 11,11v2c-7.1797,0 -13,-5.8203 -13,-13c0.12684,-2.79587 1.22694,-5.45947 3.11,-7.53l2.36,-2.36c1.27981,-1.432 1.61151,-3.47688 0.85,-5.24l-0.43,-0.84c-1.01764,-1.75779 -2.84346,-2.89377 -4.87,-3.03h-35.02v35.02c-0.13592,2.7837 -1.69685,5.30085 -4.13,6.66l-0.84,0.43c-2.53552,1.15456 -5.51637,0.67352 -7.56,-1.22l-2.36,-2.36c-1.69336,-1.50778 -3.84642,-2.39931 -6.11,-2.53c-6.07513,0 -11,4.92487 -11,11h-2c0,-7.1797 5.8203,-13 13,-13c2.47,0 5.79,1.37 7.53,3.11l2.36,2.36c1.43311,1.27747 3.47656,1.60895 5.24,0.85l0.84,-0.43c1.75779,-1.01764 2.89377,-2.84346 3.03,-4.87v-35.02h-35.02c-2.7837,-0.13592 -5.30085,-1.69686 -6.66,-4.13l-0.43,-0.84c-1.15456,-2.53552 -0.67352,-5.51637 1.22,-7.56l2.36,-2.36c1.50778,-1.69336 2.39931,-3.84642 2.53,-6.11c0,-6.07513 -4.92487,-11 -11,-11c-6.07513,0 -11,4.92487 -11,11c0,1.94 1.16,4.75 2.53,6.11l2.36,2.36c1.8885,2.04608 2.36903,5.02374 1.22,7.56l-0.43,0.84c-1.35915,2.43314 -3.87629,3.99408 -6.66,4.13h-35.02v35.02c0.13623,2.02654 1.2722,3.85236 3.03,4.87l0.84,0.43c1.58,0.79 4,0.4 5.24,-0.85l2.36,-2.36c2.06712,-1.8759 4.72183,-2.97525 7.51,-3.11c3.45128,-0.00531 6.76302,1.36199 9.20532,3.80053c2.4423,2.43855 3.81469,5.74819 3.81468,9.19947h-2c0,-6.07513 -4.92487,-11 -11,-11c-1.94,0 -4.75,1.16 -6.11,2.53l-2.36,2.36c-2.04608,1.8885 -5.02374,2.36902 -7.56,1.22l-0.84,-0.43c-2.43315,-1.35915 -3.99408,-3.87629 -4.13,-6.66v-35.02h-35.02c-2.02655,0.13623 -3.85236,1.27221 -4.87,3.03l-0.43,0.84c-0.79,1.58 -0.4,4 0.85,5.24l2.36,2.36c1.8759,2.06713 2.97525,4.72183 3.11,7.51c0.00531,3.45128 -1.36199,6.76302 -3.80053,9.20532c-2.43855,2.4423 -5.74818,3.81468 -9.19946,3.81468v-2c6.07513,0 11,-4.92487 11,-11c0,-1.94 -1.16,-4.75 -2.53,-6.11l-2.36,-2.36c-1.8885,-2.04608 -2.36903,-5.02374 -1.22,-7.56l0.43,-0.84c1.35915,-2.43314 3.8763,-3.99408 6.66,-4.13h35.02v-35.02c-0.13623,-2.02654 -1.2722,-3.85236 -3.03,-4.87l-0.84,-0.43c-1.59,-0.8 -4,-0.4 -5.24,0.85l-2.36,2.36c-2.07053,1.88305 -4.73413,2.98316 -7.53,3.11c-7.1797,0 -13,-5.8203 -13,-13c0,-7.1797 5.8203,-13 13,-13c2.47,0 5.79,1.37 7.53,3.11l2.36,2.36c1.43311,1.27747 3.47656,1.60895 5.24,0.85l0.84,-0.43c1.7578,-1.01765 2.89377,-2.84346 3.03,-4.87v-35.02h-35.02c-2.7837,-0.13593 -5.30085,-1.69685 -6.66,-4.13l-0.43,-0.84c-1.15456,-2.53552 -0.67352,-5.51637 1.22,-7.56l2.36,-2.36c1.50778,-1.69336 2.39931,-3.84642 2.53,-6.11c0,-6.07513 -4.92487,-11 -11,-11v-2c7.1797,0 13,5.8203 13,13c0,2.47 -1.37,5.79 -3.11,7.53l-2.36,2.36c-1.27747,1.43311 -1.60894,3.47656 -0.85,5.24l0.43,0.84c1.01764,1.7578 2.84346,2.89377 4.87,3.03h35.02v-35.02c0.13593,-2.7837 1.69685,-5.30085 4.13,-6.66l0.84,-0.43c2.53551,-1.15456 5.51637,-0.67352 7.56,1.22l2.36,2.36c1.69336,1.50778 3.84642,2.39931 6.11,2.53c6.07513,0 11,-4.92487 11,-11h2c0,7.1797 -5.8203,13 -13,13c-2.79587,-0.12684 -5.45947,-1.22694 -7.53,-3.11l-2.36,-2.36c-1.432,-1.27981 -3.47687,-1.61151 -5.24,-0.85l-0.84,0.43c-1.7578,1.01764 -2.89377,2.84345 -3.03,4.87v35.02h35.02c2.7837,0.13593 5.30085,1.69685 6.66,4.13l0.43,0.84c1.15456,2.53552 0.67352,5.51637 -1.22,7.56l-2.36,2.36c-1.50778,1.69337 -2.39931,3.84642 -2.53,6.11c0,6.07513 4.92487,11 11,11c6.07513,0 11,-4.92487 11,-11c0,-1.94 -1.16,-4.75 -2.53,-6.11l-2.36,-2.36c-1.8885,-2.04608 -2.36903,-5.02374 -1.22,-7.56l0.43,-0.84c1.35915,-2.43315 3.87629,-3.99408 6.66,-4.13h35.02v-35.02c-0.13623,-2.02655 -1.27221,-3.85236 -3.03,-4.87l-0.84,-0.43c-1.59,-0.8 -4,-0.4 -5.24,0.85l-2.36,2.36c-2.07053,1.88306 -4.73413,2.98316 -7.53,3.11c-7.1797,0 -13,-5.8203 -13,-13h2c0,6.07513 4.92487,11 11,11c1.94,0 4.75,-1.16 6.11,-2.53l2.36,-2.36c2.04608,-1.8885 5.02374,-2.36903 7.56,-1.22l0.84,0.43c2.43314,1.35915 3.99408,3.8763 4.13,6.66v35.02h35.02c2.02654,-0.13623 3.85236,-1.2722 4.87,-3.03l0.43,-0.84c0.8,-1.59 0.4,-4 -0.85,-5.24l-2.36,-2.36c-1.88306,-2.07053 -2.98316,-4.73413 -3.11,-7.53c0,-7.1797 5.8203,-13 13,-13zM85.79778,142.91592c2.02654,-0.13623 3.85235,-1.27221 4.87,-3.03l0.43,-0.84c0.8,-1.59 0.4,-4 -0.85,-5.24l-2.36,-2.36c-1.88305,-2.07053 -2.98316,-4.73413 -3.11,-7.53c0,-7.1797 5.8203,-13 13,-13c7.1797,0 13,5.8203 13,13c0,2.47 -1.37,5.79 -3.11,7.53l-2.36,2.36c-1.27747,1.43311 -1.60894,3.47656 -0.85,5.24l0.43,0.84c1.01765,1.75779 2.84345,2.89377 4.87,3.03h35.02v-35.02c0.13592,-2.7837 1.69685,-5.30085 4.13,-6.66l0.84,-0.43c2.53552,-1.15456 5.51637,-0.67352 7.56,1.22l2.36,2.36c1.69337,1.50778 3.84642,2.39931 6.11,2.53c6.07513,0 11,-4.92487 11,-11c0,-6.07513 -4.92487,-11 -11,-11c-1.94,0 -4.75,1.16 -6.11,2.53l-2.36,2.36c-2.04608,1.8885 -5.02374,2.36902 -7.56,1.22l-0.84,-0.43c-2.43314,-1.35915 -3.99408,-3.8763 -4.13,-6.66v-35.02h-35.02c-2.02654,0.13623 -3.85235,1.2722 -4.87,3.03l-0.43,0.84c-0.79,1.58 -0.4,4 0.85,5.24l2.36,2.36c1.8759,2.06712 2.97526,4.72183 3.11,7.51c0.00553,7.1797 -5.8103,13.00447 -12.99,13.01c-7.1797,0.00553 -13.00447,-5.8103 -13.01,-12.99c0.12684,-2.79587 1.22695,-5.45947 3.11,-7.53l2.36,-2.36c1.2798,-1.432 1.61151,-3.47687 0.85,-5.24l-0.43,-0.84c-1.01765,-1.7578 -2.84345,-2.89377 -4.87,-3.03h-35.02v35.02c-0.13593,2.7837 -1.69685,5.30085 -4.13,6.66l-0.84,0.43c-2.53551,1.15456 -5.51637,0.67352 -7.56,-1.22l-2.36,-2.36c-1.69336,-1.50778 -3.84642,-2.39931 -6.11,-2.53c-6.07513,0 -11,4.92487 -11,11c0,6.07513 4.92487,11 11,11c1.94,0 4.75,-1.16 6.11,-2.53l2.36,-2.36c2.04608,-1.8885 5.02374,-2.36902 7.56,-1.22l0.84,0.43c2.43315,1.35915 3.99408,3.87629 4.13,6.66v35.02z" fill="#000000" stroke="none" stroke-width="1" stroke-linecap="butt" stroke-linejoin="miter" stroke-miterlimit="10"/><path d="M384.46847,14.91592v2c-6.07513,0 -11,4.92487 -11,11c0,1.94 1.16,4.75 2.53,6.11l2.36,2.36c1.8885,2.04608 2.36902,5.02374 1.22,7.56l-0.43,0.84c-1.35915,2.43315 -3.87629,3.99407 -6.66,4.13h-35.02v35.02c0.13623,2.02654 1.2722,3.85236 3.03,4.87l0.84,0.43c1.58,0.79 4,0.4 5.24,-0.85l2.36,-2.36c2.06712,-1.8759 4.72183,-2.97526 7.51,-3.11c7.1797,-0.00553 13.00448,5.8103 13.01,12.99c0.00552,7.1797 -5.8103,13.00448 -12.99,13.01c-2.79587,-0.12684 -5.45947,-1.22695 -7.53,-3.11l-2.36,-2.36c-1.432,-1.2798 -3.47688,-1.61151 -5.24,-0.85l-0.84,0.43c-1.75779,1.01765 -2.89377,2.84346 -3.03,4.87v35.02h35.02c2.7837,0.13592 5.30085,1.69685 6.66,4.13l0.43,0.84c1.15456,2.53552 0.67352,5.51637 -1.22,7.56l-2.36,2.36c-1.50778,1.69337 -2.39931,3.84642 -2.53,6.11c0,6.07513 4.92487,11 11,11v2c-7.1797,0 -13,-5.8203 -13,-13c0.12684,-2.79587 1.22694,-5.45947 3.11,-7.53l2.36,-2.36c1.27981,-1.432 1.61151,-3.47688 0.85,-5.24l-0.43,-0.84c-1.01765,-1.75779 -2.84346,-2.89377 -4.87,-3.03h-35.02v35.02c-0.13592,2.7837 -1.69686,5.30085 -4.13,6.66l-0.84,0.43c-2.53551,1.15456 -5.51637,0.67352 -7.56,-1.22l-2.36,-2.36c-1.69337,-1.50778 -3.84642,-2.39931 -6.11,-2.53c-6.07513,0 -11,4.92487 -11,11h-2c0,-7.1797 5.8203,-13 13,-13c2.47,0 5.79,1.37 7.53,3.11l2.36,2.36c1.43311,1.27747 3.47656,1.60895 5.24,0.85l0.84,-0.43c1.75779,-1.01764 2.89377,-2.84346 3.03,-4.87v-35.02h-35.02c-2.7837,-0.13592 -5.30085,-1.69686 -6.66,-4.13l-0.43,-0.84c-1.15456,-2.53552 -0.67352,-5.51637 1.22,-7.56l2.36,-2.36c1.50778,-1.69336 2.39931,-3.84642 2.53,-6.11c0,-6.07513 -4.92487,-11 -11,-11c-6.07513,0 -11,4.92487 -11,11c0,1.94 1.16,4.75 2.53,6.11l2.36,2.36c1.8885,2.04608 2.36902,5.02374 1.22,7.56l-0.43,0.84c-1.35915,2.43314 -3.87629,3.99408 -6.66,4.13h-35.02v35.02c0.13623,2.02654 1.27221,3.85236 3.03,4.87l0.84,0.43c1.58,0.79 4,0.4 5.24,-0.85l2.36,-2.36c2.06713,-1.8759 4.72183,-2.97525 7.51,-3.11c3.45128,-0.00531 6.76302,1.36199 9.20532,3.80053c2.4423,2.43855 3.81468,5.74819 3.81468,9.19947h-2c0,-6.07513 -4.92487,-11 -11,-11c-1.94,0 -4.75,1.16 -6.11,2.53l-2.36,2.36c-2.04608,1.8885 -5.02374,2.36902 -7.56,1.22l-0.84,-0.43c-2.43314,-1.35915 -3.99408,-3.87629 -4.13,-6.66v-35.02h-35.02c-2.02654,0.13623 -3.85235,1.27221 -4.87,3.03l-0.43,0.84c-0.79,1.58 -0.4,4 0.85,5.24l2.36,2.36c1.8759,2.06713 2.97525,4.72183 3.11,7.51c0.00531,3.45128 -1.36199,6.76302 -3.80053,9.20532c-2.43855,2.4423 -5.74819,3.81468 -9.19947,3.81468v-2c6.07513,0 11,-4.92487 11,-11c0,-1.94 -1.16,-4.75 -2.53,-6.11l-2.36,-2.36c-1.8885,-2.04608 -2.36902,-5.02374 -1.22,-7.56l0.43,-0.84c1.35915,-2.43314 3.87629,-3.99408 6.66,-4.13h35.02v-35.02c-0.13623,-2.02654 -1.27221,-3.85236 -3.03,-4.87l-0.84,-0.43c-1.59,-0.8 -4,-0.4 -5.24,0.85l-2.36,2.36c-2.07053,1.88305 -4.73413,2.98316 -7.53,3.11c-7.1797,0 -13,-5.8203 -13,-13c0,-7.1797 5.8203,-13 13,-13c2.47,0 5.79,1.37 7.53,3.11l2.36,2.36c1.43311,1.27747 3.47655,1.60895 5.24,0.85l0.84,-0.43c1.75779,-1.01765 2.89377,-2.84346 3.03,-4.87v-35.02h-35.02c-2.7837,-0.13593 -5.30085,-1.69685 -6.66,-4.13l-0.43,-0.84c-1.15456,-2.53552 -0.67352,-5.51637 1.22,-7.56l2.36,-2.36c1.50778,-1.69336 2.39931,-3.84642 2.53,-6.11c0,-6.07513 -4.92487,-11 -11,-11v-2c7.1797,0 13,5.8203 13,13c0,2.47 -1.37,5.79 -3.11,7.53l-2.36,2.36c-1.27747,1.43311 -1.60895,3.47656 -0.85,5.24l0.43,0.84c1.01764,1.7578 2.84345,2.89377 4.87,3.03h35.02v-35.02c0.13592,-2.7837 1.69685,-5.30085 4.13,-6.66l0.84,-0.43c2.53552,-1.15456 5.51637,-0.67352 7.56,1.22l2.36,2.36c1.69336,1.50778 3.84642,2.39931 6.11,2.53c6.07513,0 11,-4.92487 11,-11h2c0,7.1797 -5.8203,13 -13,13c-2.79587,-0.12684 -5.45947,-1.22694 -7.53,-3.11l-2.36,-2.36c-1.432,-1.27981 -3.47688,-1.61151 -5.24,-0.85l-0.84,0.43c-1.75779,1.01764 -2.89377,2.84345 -3.03,4.87v35.02h35.02c2.7837,0.13593 5.30085,1.69685 6.66,4.13l0.43,0.84c1.15456,2.53552 0.67352,5.51637 -1.22,7.56l-2.36,2.36c-1.50778,1.69337 -2.39931,3.84642 -2.53,6.11c0,6.07513 4.92487,11 11,11c6.07513,0 11,-4.92487 11,-11c0,-1.94 -1.16,-4.75 -2.53,-6.11l-2.36,-2.36c-1.8885,-2.04608 -2.36902,-5.02374 -1.22,-7.56l0.43,-0.84c1.35915,-2.43315 3.87629,-3.99408 6.66,-4.13h35.02v-35.02c-0.13623,-2.02655 -1.27221,-3.85236 -3.03,-4.87l-0.84,-0.43c-1.59,-0.8 -4,-0.4 -5.24,0.85l-2.36,2.36c-2.07053,1.88306 -4.73413,2.98316 -7.53,3.11c-7.1797,0 -13,-5.8203 -13,-13h2c0,6.07513 4.92487,11 11,11c1.94,0 4.75,-1.16 6.11,-2.53l2.36,-2.36c2.04607,-1.8885 5.02374,-2.36903 7.56,-1.22l0.84,0.43c2.43315,1.35915 3.99408,3.8763 4.13,6.66v35.02h35.02c2.02654,-0.13623 3.85235,-1.2722 4.87,-3.03l0.43,-0.84c0.8,-1.59 0.4,-4 -0.85,-5.24l-2.36,-2.36c-1.88306,-2.07053 -2.98316,-4.73413 -3.11,-7.53c0,-7.1797 5.8203,-13 13,-13zM276.48847,142.91592c2.02654,-0.13623 3.85235,-1.27221 4.87,-3.03l0.43,-0.84c0.8,-1.59 0.4,-4 -0.85,-5.24l-2.36,-2.36c-1.88306,-2.07053 -2.98316,-4.73413 -3.11,-7.53c0,-7.1797 5.8203,-13 13,-13c7.1797,0 13,5.8203 13,13c0,2.47 -1.37,5.79 -3.11,7.53l-2.36,2.36c-1.27747,1.43311 -1.60895,3.47656 -0.85,5.24l0.43,0.84c1.01765,1.75779 2.84346,2.89377 4.87,3.03h35.02v-35.02c0.13592,-2.7837 1.69685,-5.30085 4.13,-6.66l0.84,-0.43c2.53551,-1.15456 5.51637,-0.67352 7.56,1.22l2.36,2.36c1.69336,1.50778 3.84642,2.39931 6.11,2.53c6.07513,0 11,-4.92487 11,-11c0,-6.07513 -4.92487,-11 -11,-11c-1.94,0 -4.75,1.16 -6.11,2.53l-2.36,2.36c-2.04607,1.8885 -5.02374,2.36902 -7.56,1.22l-0.84,-0.43c-2.43315,-1.35915 -3.99408,-3.8763 -4.13,-6.66v-35.02h-35.02c-2.02654,0.13623 -3.85235,1.2722 -4.87,3.03l-0.43,0.84c-0.79,1.58 -0.4,4 0.85,5.24l2.36,2.36c1.8759,2.06712 2.97526,4.72183 3.11,7.51c0.00552,7.1797 -5.8103,13.00447 -12.99,13.01c-7.1797,0.00553 -13.00448,-5.8103 -13.01,-12.99c0.12684,-2.79587 1.22694,-5.45947 3.11,-7.53l2.36,-2.36c1.27981,-1.432 1.61151,-3.47687 0.85,-5.24l-0.43,-0.84c-1.01765,-1.7578 -2.84346,-2.89377 -4.87,-3.03h-35.02v35.02c-0.13592,2.7837 -1.69685,5.30085 -4.13,6.66l-0.84,0.43c-2.53552,1.15456 -5.51637,0.67352 -7.56,-1.22l-2.36,-2.36c-1.69336,-1.50778 -3.84642,-2.39931 -6.11,-2.53c-6.07513,0 -11,4.92487 -11,11c0,6.07513 4.92487,11 11,11c1.94,0 4.75,-1.16 6.11,-2.53l2.36,-2.36c2.04608,-1.8885 5.02374,-2.36902 7.56,-1.22l0.84,0.43c2.43314,1.35915 3.99408,3.87629 4.13,6.66v35.02z" fill="#000000" stroke="none" stroke-width="1" stroke-linecap="butt" stroke-linejoin="miter" stroke-miterlimit="10"/><path d="M576.66066,14.91592v2c-6.07513,0 -11,4.92487 -11,11c0,1.94 1.16,4.75 2.53,6.11l2.36,2.36c1.8885,2.04608 2.36903,5.02374 1.22,7.56l-0.43,0.84c-1.35915,2.43315 -3.87629,3.99407 -6.66,4.13h-35.02v35.02c0.13623,2.02654 1.2722,3.85236 3.03,4.87l0.84,0.43c1.58,0.79 4,0.4 5.24,-0.85l2.36,-2.36c2.06713,-1.8759 4.72183,-2.97526 7.51,-3.11c7.1797,-0.00553 13.00447,5.8103 13.01,12.99c0.00553,7.1797 -5.8103,13.00448 -12.99,13.01c-2.79587,-0.12684 -5.45947,-1.22695 -7.53,-3.11l-2.36,-2.36c-1.432,-1.2798 -3.47688,-1.61151 -5.24,-0.85l-0.84,0.43c-1.75779,1.01765 -2.89377,2.84346 -3.03,4.87v35.02h35.02c2.78371,0.13592 5.30085,1.69685 6.66,4.13l0.43,0.84c1.15456,2.53552 0.67352,5.51637 -1.22,7.56l-2.36,2.36c-1.50778,1.69337 -2.39931,3.84642 -2.53,6.11c0,6.07513 4.92487,11 11,11v2c-7.1797,0 -13,-5.8203 -13,-13c0.12684,-2.79587 1.22695,-5.45947 3.11,-7.53l2.36,-2.36c1.27981,-1.432 1.61151,-3.47688 0.85,-5.24l-0.43,-0.84c-1.01765,-1.75779 -2.84345,-2.89377 -4.87,-3.03h-35.02v35.02c-0.13593,2.7837 -1.69686,5.30085 -4.13,6.66l-0.84,0.43c-2.53552,1.15456 -5.51637,0.67352 -7.56,-1.22l-2.36,-2.36c-1.69336,-1.50778 -3.84642,-2.39931 -6.11,-2.53c-6.07513,0 -11,4.92487 -11,11h-2c0,-7.1797 5.8203,-13 13,-13c2.47,0 5.79,1.37 7.53,3.11l2.36,2.36c1.43311,1.27747 3.47655,1.60895 5.24,0.85l0.84,-0.43c1.75779,-1.01764 2.89377,-2.84346 3.03,-4.87v-35.02h-35.02c-2.7837,-0.13592 -5.30085,-1.69686 -6.66,-4.13l-0.43,-0.84c-1.15456,-2.53552 -0.67352,-5.51637 1.22,-7.56l2.36,-2.36c1.50778,-1.69336 2.39931,-3.84642 2.53,-6.11c0,-6.07513 -4.92487,-11 -11,-11c-6.07513,0 -11,4.92487 -11,11c0,1.94 1.16,4.75 2.53,6.11l2.36,2.36c1.8885,2.04608 2.36903,5.02374 1.22,7.56l-0.43,0.84c-1.35915,2.43314 -3.8763,3.99408 -6.66,4.13h-35.02v35.02c0.13623,2.02654 1.2722,3.85236 3.03,4.87l0.84,0.43c1.58,0.79 4,0.4 5.24,-0.85l2.36,-2.36c2.06712,-1.8759 4.72184,-2.97525 7.51,-3.11c3.45128,-0.00531 6.76302,1.36199 9.20532,3.80053c2.4423,2.43855 3.81468,5.74819 3.81468,9.19947h-2c0,-6.07513 -4.92487,-11 -11,-11c-1.94,0 -4.75,1.16 -6.11,2.53l-2.36,2.36c-2.04607,1.8885 -5.02374,2.36902 -7.56,1.22l-0.84,-0.43c-2.43315,-1.35915 -3.99408,-3.87629 -4.13,-6.66v-35.02h-35.02c-2.02654,0.13623 -3.85235,1.27221 -4.87,3.03l-0.43,0.84c-0.79,1.58 -0.4,4 0.85,5.24l2.36,2.36c1.8759,2.06713 2.97526,4.72183 3.11,7.51c0.00531,3.45128 -1.36199,6.76302 -3.80054,9.20532c-2.43855,2.4423 -5.74818,3.81468 -9.19946,3.81468v-2c6.07513,0 11,-4.92487 11,-11c0,-1.94 -1.16,-4.75 -2.53,-6.11l-2.36,-2.36c-1.8885,-2.04608 -2.36903,-5.02374 -1.22,-7.56l0.43,-0.84c1.35915,-2.43314 3.8763,-3.99408 6.66,-4.13h35.02v-35.02c-0.13623,-2.02654 -1.27221,-3.85236 -3.03,-4.87l-0.84,-0.43c-1.59,-0.8 -4,-0.4 -5.24,0.85l-2.36,2.36c-2.07053,1.88305 -4.73413,2.98316 -7.53,3.11c-7.1797,0 -13,-5.8203 -13,-13c0,-7.1797 5.8203,-13 13,-13c2.47,0 5.79,1.37 7.53,3.11l2.36,2.36c1.43311,1.27747 3.47656,1.60895 5.24,0.85l0.84,-0.43c1.75779,-1.01765 2.89377,-2.84346 3.03,-4.87v-35.02h-35.02c-2.7837,-0.13593 -5.30085,-1.69685 -6.66,-4.13l-0.43,-0.84c-1.15456,-2.53552 -0.67352,-5.51637 1.22,-7.56l2.36,-2.36c1.50778,-1.69336 2.39931,-3.84642 2.53,-6.11c0,-6.07513 -4.92487,-11 -11,-11v-2c7.1797,0 13,5.8203 13,13c0,2.47 -1.37,5.79 -3.11,7.53l-2.36,2.36c-1.27747,1.43311 -1.60894,3.47656 -0.85,5.24l0.43,0.84c1.01765,1.7578 2.84346,2.89377 4.87,3.03h35.02v-35.02c0.13592,-2.7837 1.69685,-5.30085 4.13,-6.66l0.84,-0.43c2.53551,-1.15456 5.51637,-0.67352 7.56,1.22l2.36,2.36c1.69336,1.50778 3.84642,2.39931 6.11,2.53c6.07513,0 11,-4.92487 11,-11h2c0,7.1797 -5.8203,13 -13,13c-2.79587,-0.12684 -5.45947,-1.22694 -7.53,-3.11l-2.36,-2.36c-1.432,-1.27981 -3.47688,-1.61151 -5.24,-0.85l-0.84,0.43c-1.75779,1.01764 -2.89377,2.84345 -3.03,4.87v35.02h35.02c2.7837,0.13593 5.30085,1.69685 6.66,4.13l0.43,0.84c1.15456,2.53552 0.67352,5.51637 -1.22,7.56l-2.36,2.36c-1.50778,1.69337 -2.39931,3.84642 -2.53,6.11c0,6.07513 4.92487,11 11,11c6.07513,0 11,-4.92487 11,-11c0,-1.94 -1.16,-4.75 -2.53,-6.11l-2.36,-2.36c-1.8885,-2.04608 -2.36903,-5.02374 -1.22,-7.56l0.43,-0.84c1.35915,-2.43315 3.8763,-3.99408 6.66,-4.13h35.02v-35.02c-0.13623,-2.02655 -1.2722,-3.85236 -3.03,-4.87l-0.84,-0.43c-1.59,-0.8 -4,-0.4 -5.24,0.85l-2.36,2.36c-2.07053,1.88306 -4.73413,2.98316 -7.53,3.11c-7.1797,0 -13,-5.8203 -13,-13h2c0,6.07513 4.92487,11 11,11c1.94,0 4.75,-1.16 6.11,-2.53l2.36,-2.36c2.04607,-1.8885 5.02374,-2.36903 7.56,-1.22l0.84,0.43c2.43314,1.35915 3.99407,3.8763 4.13,6.66v35.02h35.02c2.02655,-0.13623 3.85235,-1.2722 4.87,-3.03l0.43,-0.84c0.8,-1.59 0.4,-4 -0.85,-5.24l-2.36,-2.36c-1.88306,-2.07053 -2.98316,-4.73413 -3.11,-7.53c0,-7.1797 5.8203,-13 13,-13zM468.68066,142.91592c2.02654,-0.13623 3.85235,-1.27221 4.87,-3.03l0.43,-0.84c0.8,-1.59 0.4,-4 -0.85,-5.24l-2.36,-2.36c-1.88306,-2.07053 -2.98316,-4.73413 -3.11,-7.53c0,-7.1797 5.8203,-13 13,-13c7.1797,0 13,5.8203 13,13c0,2.47 -1.37,5.79 -3.11,7.53l-2.36,2.36c-1.27747,1.43311 -1.60894,3.47656 -0.85,5.24l0.43,0.84c1.01765,1.75779 2.84346,2.89377 4.87,3.03h35.02v-35.02c0.13593,-2.7837 1.69686,-5.30085 4.13,-6.66l0.84,-0.43c2.53552,-1.15456 5.51637,-0.67352 7.56,1.22l2.36,2.36c1.69336,1.50778 3.84642,2.39931 6.11,2.53c6.07513,0 11,-4.92487 11,-11c0,-6.07513 -4.92487,-11 -11,-11c-1.94,0 -4.75,1.16 -6.11,2.53l-2.36,2.36c-2.04607,1.8885 -5.02374,2.36902 -7.56,1.22l-0.84,-0.43c-2.43314,-1.35915 -3.99407,-3.8763 -4.13,-6.66v-35.02h-35.02c-2.02654,0.13623 -3.85235,1.2722 -4.87,3.03l-0.43,0.84c-0.79,1.58 -0.4,4 0.85,5.24l2.36,2.36c1.8759,2.06712 2.97526,4.72183 3.11,7.51c0.00552,7.1797 -5.8103,13.00447 -12.99,13.01c-7.1797,0.00553 -13.00448,-5.8103 -13.01,-12.99c0.12684,-2.79587 1.22695,-5.45947 3.11,-7.53l2.36,-2.36c1.27981,-1.432 1.61151,-3.47687 0.85,-5.24l-0.43,-0.84c-1.01765,-1.7578 -2.84346,-2.89377 -4.87,-3.03h-35.02v35.02c-0.13592,2.7837 -1.69685,5.30085 -4.13,6.66l-0.84,0.43c-2.53551,1.15456 -5.51637,0.67352 -7.56,-1.22l-2.36,-2.36c-1.69336,-1.50778 -3.84642,-2.39931 -6.11,-2.53c-6.07513,0 -11,4.92487 -11,11c0,6.07513 4.92487,11 11,11c1.94,0 4.75,-1.16 6.11,-2.53l2.36,-2.36c2.04607,-1.8885 5.02374,-2.36902 7.56,-1.22l0.84,0.43c2.43315,1.35915 3.99408,3.87629 4.13,6.66v35.02z" fill="#000000" stroke="none" stroke-width="1" stroke-linecap="butt" stroke-linejoin="miter" stroke-miterlimit="10"/><path d="M625.85285,144.91592v35.02c0.13623,2.02654 1.2722,3.85236 3.03,4.87l0.84,0.43c1.58,0.79 4,0.4 5.24,-0.85l2.36,-2.36c2.06713,-1.8759 2.78,0.05 1.42,1.42l-2.36,2.36c-2.04607,1.8885 -5.02374,2.36902 -7.56,1.22l-0.84,-0.43c-2.43314,-1.35915 -3.99407,-3.87629 -4.13,-6.66v-35.02h-35.02c-2.02655,0.13623 -3.85235,1.27221 -4.87,3.03l-0.43,0.84c-0.79,1.58 -0.4,4 0.85,5.24l2.36,2.36c1.8759,2.06713 2.97526,4.72183 3.11,7.51c0.00531,3.45128 -1.36199,6.76302 -3.80053,9.20532c-2.43855,2.4423 -5.74819,3.81468 -9.19947,3.81468v-2c6.07513,0 11,-4.92487 11,-11c0,-1.94 -1.16,-4.75 -2.53,-6.11l-2.36,-2.36c-1.8885,-2.04608 -2.36903,-5.02374 -1.22,-7.56l0.43,-0.84c1.35915,-2.43314 3.87629,-3.99408 6.66,-4.13h35.02v-35.02c-0.13623,-2.02654 -1.2722,-3.85236 -3.03,-4.87l-0.84,-0.43c-1.59,-0.8 -4,-0.4 -5.24,0.85l-2.36,2.36c-2.07053,1.88305 -4.73413,2.98316 -7.53,3.11c-7.1797,0 -13,-5.8203 -13,-13c0,-7.1797 5.8203,-13 13,-13c2.47,0 5.79,1.37 7.53,3.11l2.36,2.36c1.43311,1.27747 3.47655,1.60895 5.24,0.85l0.84,-0.43c1.75779,-1.01765 2.89377,-2.84346 3.03,-4.87v-35.02h-35.02c-2.78371,-0.13593 -5.30085,-1.69685 -6.66,-4.13l-0.43,-0.84c-1.15456,-2.53552 -0.67352,-5.51637 1.22,-7.56l2.36,-2.36c1.50778,-1.69336 2.39931,-3.84642 2.53,-6.11c0,-6.07513 -4.92487,-11 -11,-11v-2c7.1797,0 13,5.8203 13,13c0,2.47 -1.37,5.79 -3.11,7.53l-2.36,2.36c-1.27747,1.43311 -1.60894,3.47656 -0.85,5.24l0.43,0.84c1.01765,1.7578 2.84345,2.89377 4.87,3.03h35.02v-35.02c0.13593,-2.7837 1.69686,-5.30085 4.13,-6.66l0.84,-0.43c2.53552,-1.15456 5.51637,-0.67352 7.56,1.22l2.36,2.36c1.69336,1.50778 0.65053,3.30306 -1.42,1.42l-2.36,-2.36c-1.432,-1.27981 -3.47688,-1.61151 -5.24,-0.85l-0.84,0.43c-1.75779,1.01764 -2.89377,2.84345 -3.03,4.87v35.02zM625.85285,48.91592v35.02c-0.13593,2.7837 -1.69686,5.30085 -4.13,6.66l-0.84,0.43c-2.53552,1.15456 -5.51637,0.67352 -7.56,-1.22l-2.36,-2.36c-1.69336,-1.50778 -3.84642,-2.39931 -6.11,-2.53c-6.07513,0 -11,4.92487 -11,11c0,6.07513 4.92487,11 11,11c1.94,0 4.75,-1.16 6.11,-2.53l2.36,-2.36c2.04607,-1.8885 5.02374,-2.36902 7.56,-1.22l0.84,0.43c2.43314,1.35915 3.99407,3.87629 4.13,6.66v35.02z" fill="#000000" stroke="none" stroke-width="1" stroke-linecap="butt" stroke-linejoin="miter" stroke-miterlimit="10"/><path d="M193.77778,207.10811v2c-6.07513,0 -11,4.92487 -11,11c0,1.94 1.16,4.75 2.53,6.11l2.36,2.36c1.8885,2.04608 2.36902,5.02374 1.22,7.56l-0.43,0.84c-1.35915,2.43314 -3.8763,3.99408 -6.66,4.13h-35.02v35.02c0.13623,2.02654 1.27221,3.85235 3.03,4.87l0.84,0.43c1.58,0.79 4,0.4 5.24,-0.85l2.36,-2.36c2.06713,-1.8759 4.72183,-2.97525 7.51,-3.11c7.1797,-0.00552 13.00447,5.8103 13.01,12.99c0.00553,7.1797 -5.8103,13.00448 -12.99,13.01c-2.79587,-0.12684 -5.45947,-1.22695 -7.53,-3.11l-2.36,-2.36c-1.432,-1.27981 -3.47687,-1.61151 -5.24,-0.85l-0.84,0.43c-1.75779,1.01765 -2.89377,2.84346 -3.03,4.87v35.02h35.02c2.7837,0.13592 5.30085,1.69685 6.66,4.13l0.43,0.84c1.15456,2.53551 0.67352,5.51637 -1.22,7.56l-2.36,2.36c-1.50778,1.69336 -2.39931,3.84642 -2.53,6.11c0,6.07513 -2,7.1797 -2,0c0.12684,-2.79587 1.22694,-5.45947 3.11,-7.53l2.36,-2.36c1.27981,-1.432 1.61151,-3.47687 0.85,-5.24l-0.43,-0.84c-1.01764,-1.75779 -2.84346,-2.89377 -4.87,-3.03h-35.02h-2h-35.02c-2.7837,-0.13592 -5.30085,-1.69685 -6.66,-4.13l-0.43,-0.84c-1.15456,-2.53551 -0.67352,-5.51637 1.22,-7.56l2.36,-2.36c1.50778,-1.69337 2.39931,-3.84642 2.53,-6.11c0,-6.07513 -4.92487,-11 -11,-11c-6.07513,0 -11,4.92487 -11,11c0,1.94 1.16,4.75 2.53,6.11l2.36,2.36c1.8885,2.04607 2.36903,5.02374 1.22,7.56l-0.43,0.84c-1.35915,2.43315 -3.87629,3.99408 -6.66,4.13h-35.02h-2h-35.02c-2.02655,0.13623 -3.85236,1.2722 -4.87,3.03l-0.43,0.84c-0.79,1.58 -0.4,4 0.85,5.24l2.36,2.36c1.8759,2.06712 2.97525,4.72183 3.11,7.51c0.00531,3.45128 -2,6.09513 -2,0.02c0,-1.94 -1.16,-4.75 -2.53,-6.11l-2.36,-2.36c-1.8885,-2.04607 -2.36903,-5.02374 -1.22,-7.56l0.43,-0.84c1.35915,-2.43315 3.8763,-3.99408 6.66,-4.13h35.02v-35.02c-0.13623,-2.02654 -1.2722,-3.85235 -3.03,-4.87l-0.84,-0.43c-1.59,-0.8 -4,-0.4 -5.24,0.85l-2.36,2.36c-2.07053,1.88306 -4.73413,2.98316 -7.53,3.11c-7.1797,0 -13,-5.8203 -13,-13c0,-7.1797 5.8203,-13 13,-13c2.47,0 5.79,1.37 7.53,3.11l2.36,2.36c1.43311,1.27747 3.47656,1.60895 5.24,0.85l0.84,-0.43c1.7578,-1.01765 2.89377,-2.84346 3.03,-4.87v-35.02h-35.02c-2.7837,-0.13592 -5.30085,-1.69685 -6.66,-4.13l-0.43,-0.84c-1.15456,-2.53552 -0.67352,-5.51637 1.22,-7.56l2.36,-2.36c1.50778,-1.69336 2.39931,-3.84642 2.53,-6.11c0,-6.07513 -4.92487,-11 -11,-11v-2c7.1797,0 13,5.8203 13,13c0,2.47 -1.37,5.79 -3.11,7.53l-2.36,2.36c-1.27747,1.43311 -1.60894,3.47655 -0.85,5.24l0.43,0.84c1.01764,1.75779 2.84346,2.89377 4.87,3.03h35.02v-35.02c0.13593,-2.7837 1.69685,-5.30085 4.13,-6.66l0.84,-0.43c2.53551,-1.15456 5.51637,-0.67352 7.56,1.22l2.36,2.36c1.69336,1.50778 3.84642,2.39931 6.11,2.53c6.07513,0 11,-4.92487 11,-11h2c0,7.1797 -5.8203,13 -13,13c-2.79587,-0.12684 -5.45947,-1.22694 -7.53,-3.11l-2.36,-2.36c-1.432,-1.27981 -3.47687,-1.61151 -5.24,-0.85l-0.84,0.43c-1.7578,1.01764 -2.89377,2.84346 -3.03,4.87v35.02h35.02c2.7837,0.13592 5.30085,1.69685 6.66,4.13l0.43,0.84c1.15456,2.53552 0.67352,5.51637 -1.22,7.56l-2.36,2.36c-1.50778,1.69337 -2.39931,3.84642 -2.53,6.11c0,6.07513 4.92487,11 11,11c6.07513,0 11,-4.92487 11,-11c0,-1.94 -1.16,-4.75 -2.53,-6.11l-2.36,-2.36c-1.8885,-2.04608 -2.36903,-5.02374 -1.22,-7.56l0.43,-0.84c1.35915,-2.43314 3.87629,-3.99408 6.66,-4.13h35.02v-35.02c-0.13623,-2.02654 -1.27221,-3.85236 -3.03,-4.87l-0.84,-0.43c-1.59,-0.8 -4,-0.4 -5.24,0.85l-2.36,2.36c-2.07053,1.88306 -4.73413,2.98316 -7.53,3.11c-7.1797,0 -13,-5.8203 -13,-13h2c0,6.07513 4.92487,11 11,11c1.94,0 4.75,-1.16 6.11,-2.53l2.36,-2.36c2.04608,-1.8885 5.02374,-2.36902 7.56,-1.22l0.84,0.43c2.43314,1.35915 3.99408,3.8763 4.13,6.66v35.02h35.02c2.02654,-0.13623 3.85236,-1.27221 4.87,-3.03l0.43,-0.84c0.8,-1.59 0.4,-4 -0.85,-5.24l-2.36,-2.36c-1.88306,-2.07053 -2.98316,-4.73413 -3.11,-7.53c0,-7.1797 5.8203,-13 13,-13zM85.79778,335.10811c2.02654,-0.13623 3.85235,-1.27221 4.87,-3.03l0.43,-0.84c0.8,-1.59 0.4,-4 -0.85,-5.24l-2.36,-2.36c-1.88305,-2.07053 -2.98316,-4.73413 -3.11,-7.53c0,-7.1797 5.8203,-13 13,-13c7.1797,0 13,5.8203 13,13c0,2.47 -1.37,5.79 -3.11,7.53l-2.36,2.36c-1.27747,1.43311 -1.60894,3.47656 -0.85,5.24l0.43,0.84c1.01765,1.75779 2.84345,2.89377 4.87,3.03h35.02v-35.02c0.13592,-2.7837 1.69685,-5.30085 4.13,-6.66l0.84,-0.43c2.53552,-1.15456 5.51637,-0.67352 7.56,1.22l2.36,2.36c1.69337,1.50778 3.84642,2.39931 6.11,2.53c6.07513,0 11,-4.92487 11,-11c0,-6.07513 -4.92487,-11 -11,-11c-1.94,0 -4.75,1.16 -6.11,2.53l-2.36,2.36c-2.04608,1.8885 -5.02374,2.36902 -7.56,1.22l-0.84,-0.43c-2.43314,-1.35915 -3.99408,-3.87629 -4.13,-6.66v-35.02h-35.02c-2.02654,0.13623 -3.85235,1.27221 -4.87,3.03l-0.43,0.84c-0.79,1.58 -0.4,4 0.85,5.24l2.36,2.36c1.8759,2.06713 2.97526,4.72183 3.11,7.51c0.00553,7.1797 -5.8103,13.00448 -12.99,13.01c-7.1797,0.00552 -13.00447,-5.8103 -13.01,-12.99c0.12684,-2.79587 1.22695,-5.45947 3.11,-7.53l2.36,-2.36c1.2798,-1.432 1.61151,-3.47688 0.85,-5.24l-0.43,-0.84c-1.01765,-1.75779 -2.84345,-2.89377 -4.87,-3.03h-35.02v35.02c-0.13593,2.7837 -1.69685,5.30085 -4.13,6.66l-0.84,0.43c-2.53551,1.15456 -5.51637,0.67352 -7.56,-1.22l-2.36,-2.36c-1.69336,-1.50778 -3.84642,-2.39931 -6.11,-2.53c-6.07513,0 -11,4.92487 -11,11c0,6.07513 4.92487,11 11,11c1.94,0 4.75,-1.16 6.11,-2.53l2.36,-2.36c2.04608,-1.8885 5.02374,-2.36902 7.56,-1.22l0.84,0.43c2.43315,1.35915 3.99408,3.87629 4.13,6.66v35.02z" fill="#000000" stroke="none" stroke-width="1" stroke-linecap="butt" stroke-linejoin="miter" stroke-miterlimit="10"/><path d="M384.46847,207.10811v2c-6.07513,0 -11,4.92487 -11,11c0,1.94 1.16,4.75 2.53,6.11l2.36,2.36c1.8885,2.04608 2.36902,5.02374 1.22,7.56l-0.43,0.84c-1.35915,2.43314 -3.87629,3.99408 -6.66,4.13h-35.02v35.02c0.13623,2.02654 1.2722,3.85235 3.03,4.87l0.84,0.43c1.58,0.79 4,0.4 5.24,-0.85l2.36,-2.36c2.06712,-1.8759 4.72183,-2.97525 7.51,-3.11c7.1797,-0.00552 13.00448,5.8103 13.01,12.99c0.00552,7.1797 -5.8103,13.00448 -12.99,13.01c-2.79587,-0.12684 -5.45947,-1.22695 -7.53,-3.11l-2.36,-2.36c-1.432,-1.27981 -3.47688,-1.61151 -5.24,-0.85l-0.84,0.43c-1.75779,1.01765 -2.89377,2.84346 -3.03,4.87v35.02h35.02c2.7837,0.13592 5.30085,1.69685 6.66,4.13l0.43,0.84c1.15456,2.53551 0.67352,5.51637 -1.22,7.56l-2.36,2.36c-1.50778,1.69336 -2.39931,3.84642 -2.53,6.11c0,6.07513 -2,7.1797 -2,0c0.12684,-2.79587 1.22694,-5.45947 3.11,-7.53l2.36,-2.36c1.27981,-1.432 1.61151,-3.47687 0.85,-5.24l-0.43,-0.84c-1.01765,-1.75779 -2.84346,-2.89377 -4.87,-3.03h-35.02h-2h-35.02c-2.7837,-0.13592 -5.30085,-1.69685 -6.66,-4.13l-0.43,-0.84c-1.15456,-2.53551 -0.67352,-5.51637 1.22,-7.56l2.36,-2.36c1.50778,-1.69337 2.39931,-3.84642 2.53,-6.11c0,-6.07513 -4.92487,-11 -11,-11c-6.07513,0 -11,4.92487 -11,11c0,1.94 1.16,4.75 2.53,6.11l2.36,2.36c1.8885,2.04607 2.36902,5.02374 1.22,7.56l-0.43,0.84c-1.35915,2.43315 -3.87629,3.99408 -6.66,4.13h-35.02h-2h-35.02c-2.02654,0.13623 -3.85235,1.2722 -4.87,3.03l-0.43,0.84c-0.79,1.58 -0.4,4 0.85,5.24l2.36,2.36c1.8759,2.06712 2.97525,4.72183 3.11,7.51c0.00531,3.45128 -2,6.09513 -2,0.02c0,-1.94 -1.16,-4.75 -2.53,-6.11l-2.36,-2.36c-1.8885,-2.04607 -2.36902,-5.02374 -1.22,-7.56l0.43,-0.84c1.35915,-2.43315 3.87629,-3.99408 6.66,-4.13h35.02v-35.02c-0.13623,-2.02654 -1.27221,-3.85235 -3.03,-4.87l-0.84,-0.43c-1.59,-0.8 -4,-0.4 -5.24,0.85l-2.36,2.36c-2.07053,1.88306 -4.73413,2.98316 -7.53,3.11c-7.1797,0 -13,-5.8203 -13,-13c0,-7.1797 5.8203,-13 13,-13c2.47,0 5.79,1.37 7.53,3.11l2.36,2.36c1.43311,1.27747 3.47655,1.60895 5.24,0.85l0.84,-0.43c1.75779,-1.01765 2.89377,-2.84346 3.03,-4.87v-35.02h-35.02c-2.7837,-0.13592 -5.30085,-1.69685 -6.66,-4.13l-0.43,-0.84c-1.15456,-2.53552 -0.67352,-5.51637 1.22,-7.56l2.36,-2.36c1.50778,-1.69336 2.39931,-3.84642 2.53,-6.11c0,-6.07513 -4.92487,-11 -11,-11v-2c7.1797,0 13,5.8203 13,13c0,2.47 -1.37,5.79 -3.11,7.53l-2.36,2.36c-1.27747,1.43311 -1.60895,3.47655 -0.85,5.24l0.43,0.84c1.01764,1.75779 2.84345,2.89377 4.87,3.03h35.02v-35.02c0.13592,-2.7837 1.69685,-5.30085 4.13,-6.66l0.84,-0.43c2.53552,-1.15456 5.51637,-0.67352 7.56,1.22l2.36,2.36c1.69336,1.50778 3.84642,2.39931 6.11,2.53c6.07513,0 11,-4.92487 11,-11h2c0,7.1797 -5.8203,13 -13,13c-2.79587,-0.12684 -5.45947,-1.22694 -7.53,-3.11l-2.36,-2.36c-1.432,-1.27981 -3.47688,-1.61151 -5.24,-0.85l-0.84,0.43c-1.75779,1.01764 -2.89377,2.84346 -3.03,4.87v35.02h35.02c2.7837,0.13592 5.30085,1.69685 6.66,4.13l0.43,0.84c1.15456,2.53552 0.67352,5.51637 -1.22,7.56l-2.36,2.36c-1.50778,1.69337 -2.39931,3.84642 -2.53,6.11c0,6.07513 4.92487,11 11,11c6.07513,0 11,-4.92487 11,-11c0,-1.94 -1.16,-4.75 -2.53,-6.11l-2.36,-2.36c-1.8885,-2.04608 -2.36902,-5.02374 -1.22,-7.56l0.43,-0.84c1.35915,-2.43314 3.87629,-3.99408 6.66,-4.13h35.02v-35.02c-0.13623,-2.02654 -1.27221,-3.85236 -3.03,-4.87l-0.84,-0.43c-1.59,-0.8 -4,-0.4 -5.24,0.85l-2.36,2.36c-2.07053,1.88306 -4.73413,2.98316 -7.53,3.11c-7.1797,0 -13,-5.8203 -13,-13h2c0,6.07513 4.92487,11 11,11c1.94,0 4.75,-1.16 6.11,-2.53l2.36,-2.36c2.04607,-1.8885 5.02374,-2.36902 7.56,-1.22l0.84,0.43c2.43315,1.35915 3.99408,3.8763 4.13,6.66v35.02h35.02c2.02654,-0.13623 3.85235,-1.27221 4.87,-3.03l0.43,-0.84c0.8,-1.59 0.4,-4 -0.85,-5.24l-2.36,-2.36c-1.88306,-2.07053 -2.98316,-4.73413 -3.11,-7.53c0,-7.1797 5.8203,-13 13,-13zM276.48847,335.10811c2.02654,-0.13623 3.85235,-1.27221 4.87,-3.03l0.43,-0.84c0.8,-1.59 0.4,-4 -0.85,-5.24l-2.36,-2.36c-1.88306,-2.07053 -2.98316,-4.73413 -3.11,-7.53c0,-7.1797 5.8203,-13 13,-13c7.1797,0 13,5.8203 13,13c0,2.47 -1.37,5.79 -3.11,7.53l-2.36,2.36c-1.27747,1.43311 -1.60895,3.47656 -0.85,5.24l0.43,0.84c1.01765,1.75779 2.84346,2.89377 4.87,3.03h35.02v-35.02c0.13592,-2.7837 1.69685,-5.30085 4.13,-6.66l0.84,-0.43c2.53551,-1.15456 5.51637,-0.67352 7.56,1.22l2.36,2.36c1.69336,1.50778 3.84642,2.39931 6.11,2.53c6.07513,0 11,-4.92487 11,-11c0,-6.07513 -4.92487,-11 -11,-11c-1.94,0 -4.75,1.16 -6.11,2.53l-2.36,2.36c-2.04607,1.8885 -5.02374,2.36902 -7.56,1.22l-0.84,-0.43c-2.43315,-1.35915 -3.99408,-3.87629 -4.13,-6.66v-35.02h-35.02c-2.02654,0.13623 -3.85235,1.27221 -4.87,3.03l-0.43,0.84c-0.79,1.58 -0.4,4 0.85,5.24l2.36,2.36c1.8759,2.06713 2.97526,4.72183 3.11,7.51c0.00552,7.1797 -5.8103,13.00448 -12.99,13.01c-7.1797,0.00552 -13.00448,-5.8103 -13.01,-12.99c0.12684,-2.79587 1.22694,-5.45947 3.11,-7.53l2.36,-2.36c1.27981,-1.432 1.61151,-3.47688 0.85,-5.24l-0.43,-0.84c-1.01765,-1.75779 -2.84346,-2.89377 -4.87,-3.03h-35.02v35.02c-0.13592,2.7837 -1.69685,5.30085 -4.13,6.66l-0.84,0.43c-2.53552,1.15456 -5.51637,0.67352 -7.56,-1.22l-2.36,-2.36c-1.69336,-1.50778 -3.84642,-2.39931 -6.11,-2.53c-6.07513,0 -11,4.92487 -11,11c0,6.07513 4.92487,11 11,11c1.94,0 4.75,-1.16 6.11,-2.53l2.36,-2.36c2.04608,-1.8885 5.02374,-2.36902 7.56,-1.22l0.84,0.43c2.43314,1.35915 3.99408,3.87629 4.13,6.66v35.02z" fill="#000000" stroke="none" stroke-width="1" stroke-linecap="butt" stroke-linejoin="miter" stroke-miterlimit="10"/><path d="M576.66066,207.10811v2c-6.07513,0 -11,4.92487 -11,11c0,1.94 1.16,4.75 2.53,6.11l2.36,2.36c1.8885,2.04608 2.36903,5.02374 1.22,7.56l-0.43,0.84c-1.35915,2.43314 -3.87629,3.99408 -6.66,4.13h-35.02v35.02c0.13623,2.02654 1.2722,3.85235 3.03,4.87l0.84,0.43c1.58,0.79 4,0.4 5.24,-0.85l2.36,-2.36c2.06713,-1.8759 4.72183,-2.97525 7.51,-3.11c7.1797,-0.00552 13.00447,5.8103 13.01,12.99c0.00553,7.1797 -5.8103,13.00448 -12.99,13.01c-2.79587,-0.12684 -5.45947,-1.22695 -7.53,-3.11l-2.36,-2.36c-1.432,-1.27981 -3.47688,-1.61151 -5.24,-0.85l-0.84,0.43c-1.75779,1.01765 -2.89377,2.84346 -3.03,4.87v35.02h35.02c2.78371,0.13592 5.30085,1.69685 6.66,4.13l0.43,0.84c1.15456,2.53551 0.67352,5.51637 -1.22,7.56l-2.36,2.36c-1.50778,1.69336 -2.39931,3.84642 -2.53,6.11c0,6.07513 -2,7.1797 -2,0c0.12684,-2.79587 1.22695,-5.45947 3.11,-7.53l2.36,-2.36c1.27981,-1.432 1.61151,-3.47687 0.85,-5.24l-0.43,-0.84c-1.01765,-1.75779 -2.84345,-2.89377 -4.87,-3.03h-35.02h-2h-35.02c-2.7837,-0.13592 -5.30085,-1.69685 -6.66,-4.13l-0.43,-0.84c-1.15456,-2.53551 -0.67352,-5.51637 1.22,-7.56l2.36,-2.36c1.50778,-1.69337 2.39931,-3.84642 2.53,-6.11c0,-6.07513 -4.92487,-11 -11,-11c-6.07513,0 -11,4.92487 -11,11c0,1.94 1.16,4.75 2.53,6.11l2.36,2.36c1.8885,2.04607 2.36903,5.02374 1.22,7.56l-0.43,0.84c-1.35915,2.43315 -3.8763,3.99408 -6.66,4.13h-35.02h-2h-35.02c-2.02654,0.13623 -3.85235,1.2722 -4.87,3.03l-0.43,0.84c-0.79,1.58 -0.4,4 0.85,5.24l2.36,2.36c1.8759,2.06712 2.97526,4.72183 3.11,7.51c0.00531,3.45128 -2,6.09513 -2,0.02c0,-1.94 -1.16,-4.75 -2.53,-6.11l-2.36,-2.36c-1.8885,-2.04607 -2.36903,-5.02374 -1.22,-7.56l0.43,-0.84c1.35915,-2.43315 3.8763,-3.99408 6.66,-4.13h35.02v-35.02c-0.13623,-2.02654 -1.27221,-3.85235 -3.03,-4.87l-0.84,-0.43c-1.59,-0.8 -4,-0.4 -5.24,0.85l-2.36,2.36c-2.07053,1.88306 -4.73413,2.98316 -7.53,3.11c-7.1797,0 -13,-5.8203 -13,-13c0,-7.1797 5.8203,-13 13,-13c2.47,0 5.79,1.37 7.53,3.11l2.36,2.36c1.43311,1.27747 3.47656,1.60895 5.24,0.85l0.84,-0.43c1.75779,-1.01765 2.89377,-2.84346 3.03,-4.87v-35.02h-35.02c-2.7837,-0.13592 -5.30085,-1.69685 -6.66,-4.13l-0.43,-0.84c-1.15456,-2.53552 -0.67352,-5.51637 1.22,-7.56l2.36,-2.36c1.50778,-1.69336 2.39931,-3.84642 2.53,-6.11c0,-6.07513 -4.92487,-11 -11,-11v-2c7.1797,0 13,5.8203 13,13c0,2.47 -1.37,5.79 -3.11,7.53l-2.36,2.36c-1.27747,1.43311 -1.60894,3.47655 -0.85,5.24l0.43,0.84c1.01765,1.75779 2.84346,2.89377 4.87,3.03h35.02v-35.02c0.13592,-2.7837 1.69685,-5.30085 4.13,-6.66l0.84,-0.43c2.53551,-1.15456 5.51637,-0.67352 7.56,1.22l2.36,2.36c1.69336,1.50778 3.84642,2.39931 6.11,2.53c6.07513,0 11,-4.92487 11,-11h2c0,7.1797 -5.8203,13 -13,13c-2.79587,-0.12684 -5.45947,-1.22694 -7.53,-3.11l-2.36,-2.36c-1.432,-1.27981 -3.47688,-1.61151 -5.24,-0.85l-0.84,0.43c-1.75779,1.01764 -2.89377,2.84346 -3.03,4.87v35.02h35.02c2.7837,0.13592 5.30085,1.69685 6.66,4.13l0.43,0.84c1.15456,2.53552 0.67352,5.51637 -1.22,7.56l-2.36,2.36c-1.50778,1.69337 -2.39931,3.84642 -2.53,6.11c0,6.07513 4.92487,11 11,11c6.07513,0 11,-4.92487 11,-11c0,-1.94 -1.16,-4.75 -2.53,-6.11l-2.36,-2.36c-1.8885,-2.04608 -2.36903,-5.02374 -1.22,-7.56l0.43,-0.84c1.35915,-2.43314 3.8763,-3.99408 6.66,-4.13h35.02v-35.02c-0.13623,-2.02654 -1.2722,-3.85236 -3.03,-4.87l-0.84,-0.43c-1.59,-0.8 -4,-0.4 -5.24,0.85l-2.36,2.36c-2.07053,1.88306 -4.73413,2.98316 -7.53,3.11c-7.1797,0 -13,-5.8203 -13,-13h2c0,6.07513 4.92487,11 11,11c1.94,0 4.75,-1.16 6.11,-2.53l2.36,-2.36c2.04607,-1.8885 5.02374,-2.36902 7.56,-1.22l0.84,0.43c2.43314,1.35915 3.99407,3.8763 4.13,6.66v35.02h35.02c2.02655,-0.13623 3.85235,-1.27221 4.87,-3.03l0.43,-0.84c0.8,-1.59 0.4,-4 -0.85,-5.24l-2.36,-2.36c-1.88306,-2.07053 -2.98316,-4.73413 -3.11,-7.53c0,-7.1797 5.8203,-13 13,-13zM468.68066,335.10811c2.02654,-0.13623 3.85235,-1.27221 4.87,-3.03l0.43,-0.84c0.8,-1.59 0.4,-4 -0.85,-5.24l-2.36,-2.36c-1.88306,-2.07053 -2.98316,-4.73413 -3.11,-7.53c0,-7.1797 5.8203,-13 13,-13c7.1797,0 13,5.8203 13,13c0,2.47 -1.37,5.79 -3.11,7.53l-2.36,2.36c-1.27747,1.43311 -1.60894,3.47656 -0.85,5.24l0.43,0.84c1.01765,1.75779 2.84346,2.89377 4.87,3.03h35.02v-35.02c0.13593,-2.7837 1.69686,-5.30085 4.13,-6.66l0.84,-0.43c2.53552,-1.15456 5.51637,-0.67352 7.56,1.22l2.36,2.36c1.69336,1.50778 3.84642,2.39931 6.11,2.53c6.07513,0 11,-4.92487 11,-11c0,-6.07513 -4.92487,-11 -11,-11c-1.94,0 -4.75,1.16 -6.11,2.53l-2.36,2.36c-2.04607,1.8885 -5.02374,2.36902 -7.56,1.22l-0.84,-0.43c-2.43314,-1.35915 -3.99407,-3.87629 -4.13,-6.66v-35.02h-35.02c-2.02654,0.13623 -3.85235,1.27221 -4.87,3.03l-0.43,0.84c-0.79,1.58 -0.4,4 0.85,5.24l2.36,2.36c1.8759,2.06713 2.97526,4.72183 3.11,7.51c0.00552,7.1797 -5.8103,13.00448 -12.99,13.01c-7.1797,0.00552 -13.00448,-5.8103 -13.01,-12.99c0.12684,-2.79587 1.22695,-5.45947 3.11,-7.53l2.36,-2.36c1.27981,-1.432 1.61151,-3.47688 0.85,-5.24l-0.43,-0.84c-1.01765,-1.75779 -2.84346,-2.89377 -4.87,-3.03h-35.02v35.02c-0.13592,2.7837 -1.69685,5.30085 -4.13,6.66l-0.84,0.43c-2.53551,1.15456 -5.51637,0.67352 -7.56,-1.22l-2.36,-2.36c-1.69336,-1.50778 -3.84642,-2.39931 -6.11,-2.53c-6.07513,0 -11,4.92487 -11,11c0,6.07513 4.92487,11 11,11c1.94,0 4.75,-1.16 6.11,-2.53l2.36,-2.36c2.04607,-1.8885 5.02374,-2.36902 7.56,-1.22l0.84,0.43c2.43315,1.35915 3.99408,3.87629 4.13,6.66v35.02z" fill="#000000" stroke="none" stroke-width="1" stroke-linecap="butt" stroke-linejoin="miter" stroke-miterlimit="10"/><path d="M625.85285,337.10811h-2h-35.02c-2.02655,0.13623 -3.85235,1.2722 -4.87,3.03l-0.43,0.84c-0.79,1.58 -0.4,4 0.85,5.24l2.36,2.36c1.8759,2.06712 2.97526,4.72183 3.11,7.51c0.00531,3.45128 -2,6.09513 -2,0.02c0,-1.94 -1.16,-4.75 -2.53,-6.11l-2.36,-2.36c-1.8885,-2.04607 -2.36903,-5.02374 -1.22,-7.56l0.43,-0.84c1.35915,-2.43315 3.87629,-3.99408 6.66,-4.13h35.02v-35.02c-0.13623,-2.02654 -1.2722,-3.85235 -3.03,-4.87l-0.84,-0.43c-1.59,-0.8 -4,-0.4 -5.24,0.85l-2.36,2.36c-2.07053,1.88306 -4.73413,2.98316 -7.53,3.11c-7.1797,0 -13,-5.8203 -13,-13c0,-7.1797 5.8203,-13 13,-13c2.47,0 5.79,1.37 7.53,3.11l2.36,2.36c1.43311,1.27747 3.47655,1.60895 5.24,0.85l0.84,-0.43c1.75779,-1.01765 2.89377,-2.84346 3.03,-4.87v-35.02h-35.02c-2.78371,-0.13592 -5.30085,-1.69685 -6.66,-4.13l-0.43,-0.84c-1.15456,-2.53552 -0.67352,-5.51637 1.22,-7.56l2.36,-2.36c1.50778,-1.69336 2.39931,-3.84642 2.53,-6.11c0,-6.07513 -4.92487,-11 -11,-11v-2c7.1797,0 13,5.8203 13,13c0,2.47 -1.37,5.79 -3.11,7.53l-2.36,2.36c-1.27747,1.43311 -1.60894,3.47655 -0.85,5.24l0.43,0.84c1.01765,1.75779 2.84345,2.89377 4.87,3.03h35.02v-35.02c0.13593,-2.7837 1.69686,-5.30085 4.13,-6.66l0.84,-0.43c2.53552,-1.15456 5.51637,-0.67352 7.56,1.22l2.36,2.36c1.69336,1.50778 0.65053,3.30306 -1.42,1.42l-2.36,-2.36c-1.432,-1.27981 -3.47688,-1.61151 -5.24,-0.85l-0.84,0.43c-1.75779,1.01764 -2.89377,2.84346 -3.03,4.87v35.02zM625.85285,241.10811v35.02c-0.13593,2.7837 -1.69686,5.30085 -4.13,6.66l-0.84,0.43c-2.53552,1.15456 -5.51637,0.67352 -7.56,-1.22l-2.36,-2.36c-1.69336,-1.50778 -3.84642,-2.39931 -6.11,-2.53c-6.07513,0 -11,4.92487 -11,11c0,6.07513 4.92487,11 11,11c1.94,0 4.75,-1.16 6.11,-2.53l2.36,-2.36c2.04607,-1.8885 5.02374,-2.36902 7.56,-1.22l0.84,0.43c2.43314,1.35915 3.99407,3.87629 4.13,6.66v35.02z" fill="#000000" stroke="none" stroke-width="1" stroke-linecap="butt" stroke-linejoin="miter" stroke-miterlimit="10"/><path d="M640.68508,357.59394c-0.58803,3.73814 -10.40867,2.19536 -23.99014,1.76614c-21.18726,-0.66959 -55.10522,1.02565 -90.43764,0.97865c-41.25686,-0.05488 -87.59865,-0.44701 -123.25063,-0.31927c-17.57598,0.06298 -31.54466,1.26159 -43.00218,0.71236c-14.297,-0.68534 -24.66443,0.26064 -24.09746,-2.2966c23.53361,-106.14544 95.28776,-157.36516 216.55522,-154.73164c68.36673,1.48469 70.13785,-2.92346 83.24818,25.17344c5.81587,12.46406 3.32367,35.78356 4.16436,62.66515c0.62571,20.00739 5.22,38.01914 0.81029,66.05177z" fill="#f7aa32" stroke="none" stroke-width="1.99937" stroke-linecap="round" stroke-linejoin="round" stroke-miterlimit="10"/><path d="M436.62567,317.69224c-1.99458,16.51293 -13.23271,29.51449 -27.76971,28.81468c-14.53701,-0.69981 -29.26997,-15.30753 -24.87345,-31.34891c4.87999,-17.80539 19.41155,-27.06727 27.76971,-28.81469c20.80171,-4.34896 27.09697,12.94054 24.87345,31.34892z" fill="#2c2c2b" stroke="none" stroke-width="1.99937" stroke-linecap="round" stroke-linejoin="round" stroke-miterlimit="10"/><path d="M549.22532,328.93845c-1.99458,16.51293 -13.23271,29.51449 -27.76971,28.81468c-14.53701,-0.69981 -29.26997,-15.30753 -24.87345,-31.34891c4.87999,-17.80539 19.41155,-27.06727 27.76971,-28.81469c20.80171,-4.34896 27.09697,12.94054 24.87345,31.34892z" fill="#2c2c2b" stroke="none" stroke-width="1.99937" stroke-linecap="round" stroke-linejoin="round" stroke-miterlimit="10"/><path d="M530.90527,205.41887l-118.14722,44.59862c3.82465,-29.99322 22.2258,-85.82889 52.42294,-93.89183c30.19713,-8.06294 51.61084,24.54586 65.72428,49.29321z" fill="#f7aa32" stroke="none" stroke-width="18" stroke-linecap="round" stroke-linejoin="round" stroke-miterlimit="4"/><path d="M606.7157,205.74329c19.33994,-11.16022 7.86244,-45.88583 30.39954,-27.79583c6.65156,5.33906 2.10903,16.82126 2.57106,24.56761c1.10341,18.50015 3.92408,41.97596 -0.67015,63.66079z" fill="#f7aa32" stroke="none" stroke-width="18" stroke-linecap="round" stroke-linejoin="round" stroke-miterlimit="4"/></g></g></svg>