<?xml version="1.0" standalone="no"?>
<!DOCTYPE svg PUBLIC "-//W3C//DTD SVG 20010904//EN"
 "http://www.w3.org/TR/2001/REC-SVG-20010904/DTD/svg10.dtd">
<svg version="1.0" xmlns="http://www.w3.org/2000/svg"
 width="1024.000000pt" height="1024.000000pt" viewBox="0 0 1024.000000 1024.000000"
 preserveAspectRatio="xMidYMid meet">
<metadata>
Created by potrace 1.14, written by Peter Selinger 2001-2017
</metadata>
<g transform="translate(0.000000,1024.000000) scale(0.100000,-0.100000)"
fill="#000000" stroke="none">
<path d="M3836 9768 c3 -5 10 -6 15 -3 13 9 11 12 -6 12 -8 0 -12 -4 -9 -9z"/>
<path d="M3869 9768 c-1 -4 -3 -12 -4 -18 -1 -5 -3 -13 -4 -17 -1 -5 -6 -1
-11 7 -6 10 -10 11 -10 3 0 -9 -19 -13 -60 -13 -65 0 -65 0 -49 -33 10 -21 10
-21 -5 -3 -9 11 -16 23 -16 28 0 4 -7 8 -17 8 -14 0 -14 -3 3 -22 10 -12 13
-18 7 -14 -8 4 -13 2 -13 -5 0 -7 -10 -9 -25 -7 -14 3 -25 0 -26 -6 -1 -6 -2
-18 -3 -26 0 -8 -10 -15 -21 -16 -11 -1 -35 -2 -52 -3 -30 -1 -33 -4 -33 -32
0 -28 -3 -31 -25 -27 -14 3 -25 0 -26 -6 -1 -6 -2 -18 -3 -26 0 -8 -10 -15
-21 -15 -14 0 -21 -8 -23 -27 -3 -22 -9 -28 -28 -28 -19 0 -24 -5 -24 -25 0
-15 -5 -25 -12 -24 -29 4 -38 -2 -38 -26 0 -24 -9 -30 -38 -26 -9 2 -12 -6
-10 -21 2 -15 -2 -23 -12 -24 -8 -1 -20 -2 -27 -3 -6 0 -11 -15 -11 -32 1 -17
-5 -35 -13 -40 -10 -6 -10 -9 -1 -9 6 0 12 -4 12 -9 0 -5 -9 -7 -20 -4 -12 3
-20 0 -20 -6 0 -7 -4 -9 -10 -6 -6 4 -10 -6 -10 -24 0 -23 -5 -30 -22 -33 -13
-2 -24 -9 -24 -15 -1 -7 -2 -19 -3 -27 -1 -8 -11 -12 -26 -11 -14 2 -25 -1
-25 -7 0 -6 8 -7 18 -4 16 6 16 5 0 -7 -10 -8 -17 -32 -20 -66 -2 -43 -7 -55
-21 -57 -18 -2 -18 -2 -1 17 9 10 14 22 11 26 -4 3 -7 1 -7 -6 0 -7 -5 -9 -10
-6 -6 4 -7 11 -4 17 4 6 3 9 -2 5 -5 -3 -11 -38 -12 -78 -4 -84 -6 -89 -32
-84 -15 3 -20 -2 -20 -21 0 -13 0 -35 0 -49 0 -14 -4 -24 -8 -24 -23 4 -43 -3
-41 -13 5 -39 -2 -57 -18 -52 -17 5 -17 5 0 -6 26 -17 21 -40 -8 -40 -23 0
-25 -3 -25 -50 0 -48 -5 -55 -36 -51 -9 1 -16 -45 -18 -121 0 -15 -3 -26 -6
-26 -21 2 -30 -4 -24 -14 4 -7 3 -9 -1 -5 -15 13 -15 39 0 33 8 -3 17 0 21 6
4 7 3 8 -5 4 -7 -4 -10 -2 -9 5 2 7 -4 14 -12 16 -12 3 -16 -7 -17 -42 -1 -33
2 -43 10 -38 9 5 9 3 0 -8 -6 -8 -13 -27 -15 -44 -2 -21 -8 -30 -20 -29 -10 1
-15 -3 -12 -8 3 -5 12 -7 19 -4 9 3 12 -7 11 -37 -1 -23 -6 -40 -12 -37 -5 3
-8 8 -7 12 2 4 -4 5 -12 2 -13 -5 -13 -8 0 -21 20 -19 19 -29 0 -13 -13 11
-15 6 -16 -36 0 -27 -1 -72 -2 -100 0 -34 -5 -51 -13 -51 -7 0 -11 4 -8 9 3 4
0 8 -7 8 -7 0 -4 7 7 15 19 15 19 15 -1 8 -19 -6 -19 -5 -3 13 16 19 16 20 0
20 -14 0 -17 -9 -17 -46 0 -25 4 -51 9 -59 6 -10 5 -12 -2 -7 -8 5 -12 -5 -12
-33 0 -29 -5 -41 -17 -44 -17 -4 -17 -5 0 -6 13 -1 17 -8 15 -32 -3 -35 -22
-57 -34 -38 -4 7 -3 9 4 5 6 -3 13 -2 16 3 5 7 -14 21 -28 21 -3 0 -3 -11 -6
-152 -1 -58 -6 -98 -12 -98 -6 0 -8 7 -5 15 4 8 1 17 -5 21 -6 4 -8 3 -4 -4 3
-6 -5 -19 -19 -30 -21 -16 -22 -21 -9 -26 29 -11 3 -26 -47 -26 -43 0 -50 -3
-47 -17 2 -10 10 -17 16 -15 7 1 12 -2 12 -8 0 -5 -13 -8 -30 -6 -33 4 -71
-16 -52 -28 18 -11 2 -36 -25 -36 -19 0 -24 -4 -21 -22 3 -19 -2 -24 -30 -26
-27 -3 -33 -7 -30 -25 2 -18 -3 -23 -28 -25 -27 -3 -30 -6 -26 -28 4 -20 1
-24 -22 -24 -21 0 -26 -5 -26 -25 0 -20 -5 -25 -25 -25 -14 0 -25 -5 -25 -12
0 -9 -3 -9 -12 0 -7 7 -16 12 -21 12 -5 0 1 -9 14 -19 13 -11 21 -23 16 -27
-4 -4 -14 1 -23 12 -13 16 -15 17 -10 2 5 -17 -5 -22 -42 -21 -7 1 -11 -2 -8
-5 3 -3 1 -11 -5 -19 -9 -9 -8 -13 0 -13 6 0 11 4 11 9 0 5 6 11 14 14 10 4
14 0 13 -13 -1 -10 -4 -18 -7 -18 -28 2 -39 -5 -42 -29 -2 -23 -7 -27 -27 -25
-21 3 -23 1 -19 -27 4 -28 2 -31 -24 -31 -24 0 -28 -4 -28 -30 0 -26 -3 -29
-29 -25 -20 2 -28 -1 -27 -11 3 -17 16 -31 16 -16 0 14 26 16 35 3 3 -5 0 -13
-6 -17 -8 -4 -9 -3 -5 4 9 16 -7 15 -22 0 -7 -7 -12 -8 -12 -4 0 5 -12 1 -26
-9 -15 -9 -23 -12 -20 -6 4 6 2 11 -5 11 -7 0 -9 -10 -7 -25 5 -22 2 -25 -23
-25 -27 0 -29 -3 -29 -41 0 -24 -4 -38 -10 -34 -5 3 -10 2 -10 -4 0 -5 6 -12
13 -14 6 -3 0 -6 -15 -6 -29 -1 -31 -7 -31 -83 0 -10 -5 -14 -13 -11 -17 6
-18 30 -1 36 6 3 2 5 -9 4 -15 -1 -22 -8 -22 -22 -1 -11 -2 -35 -2 -52 -1 -18
-4 -32 -8 -32 -31 5 -44 -3 -39 -21 4 -17 0 -22 -24 -27 -23 -4 -29 -11 -29
-30 0 -20 -4 -24 -20 -20 -25 7 -28 1 -31 -55 -2 -37 -6 -46 -19 -43 -30 6
-41 -11 -42 -64 -2 -29 -4 -48 -6 -42 -2 5 -11 7 -20 4 -15 -6 -15 -5 -3 10 7
9 10 17 5 17 -5 0 -2 5 6 10 12 7 11 9 -6 8 -13 -1 -20 -9 -21 -22 -3 -103 -8
-123 -28 -118 -11 3 -14 7 -7 10 7 2 9 9 6 14 -4 7 -2 8 4 4 7 -4 12 -3 12 3
0 5 -8 9 -18 8 -14 -1 -18 -10 -19 -44 -2 -52 -8 -63 -35 -63 -18 0 -19 -2 -7
-17 10 -11 10 -14 2 -9 -9 5 -13 0 -13 -17 0 -16 -7 -26 -19 -30 -14 -3 -18
-1 -14 9 3 8 1 14 -5 14 -6 0 -9 -8 -7 -17 1 -12 10 -17 24 -16 11 2 21 -1 21
-5 0 -4 -10 -8 -21 -9 -28 -2 -27 -1 -32 -56 -4 -41 -17 -80 -17 -50 0 5 -7
10 -15 10 -14 0 -20 -16 -15 -46 1 -10 -6 -12 -24 -9 -22 4 -26 2 -25 -16 4
-41 -1 -62 -10 -48 -7 11 -9 11 -14 -2 -4 -9 -1 -15 5 -13 6 1 13 -4 15 -10 3
-8 -5 -13 -21 -13 -25 0 -26 -2 -26 -56 0 -34 -4 -53 -10 -49 -5 3 -10 1 -10
-4 0 -6 -5 -10 -12 -8 -7 1 -12 -12 -14 -33 -1 -19 -3 -52 -5 -72 -1 -22 -6
-35 -12 -31 -6 4 -8 0 -5 -9 4 -8 1 -15 -7 -15 -7 0 -11 6 -8 14 3 8 0 11 -9
8 -8 -3 -15 -11 -15 -18 -1 -7 -2 -30 -4 -53 -2 -35 -5 -40 -23 -37 -22 5 -23
4 -29 -134 -1 -12 -5 -19 -9 -17 -4 3 -8 0 -8 -7 0 -7 -7 -4 -16 7 -8 10 -13
13 -9 7 3 -7 3 -13 -2 -13 -4 0 -7 -22 -6 -49 1 -36 -3 -51 -14 -55 -10 -4
-13 -2 -10 7 3 8 0 14 -7 14 -7 0 -12 -10 -13 -21 0 -12 -1 -49 -2 -83 0 -35
-4 -62 -8 -62 -39 6 -43 -8 -46 -183 -1 -28 -11 -36 -21 -19 -4 5 0 11 6 14
10 4 11 7 1 18 -7 7 -13 22 -13 33 0 28 -7 16 -13 -21 -3 -18 -1 -35 4 -39 5
-3 9 -13 9 -22 0 -13 -2 -14 -9 -3 -5 8 -9 -15 -10 -60 -1 -40 -3 -74 -5 -76
-2 -2 -13 -5 -24 -6 -17 -1 -19 -5 -11 -19 6 -10 14 -16 19 -13 5 3 12 0 16
-6 5 -8 -1 -10 -20 -7 -28 6 -35 -9 -13 -31 9 -11 9 -13 0 -7 -15 8 -14 14
-17 -93 -2 -79 -13 -110 -31 -82 -4 7 1 9 12 5 13 -4 15 -3 5 4 -8 5 -13 12
-13 16 6 40 -9 29 -15 -12 -4 -23 -1 -31 13 -35 17 -4 17 -5 1 -6 -19 -1 -19
-4 -20 -113 0 -31 -6 -52 -16 -60 -12 -10 -14 -10 -8 -1 4 7 3 13 -3 13 -5 0
-12 -8 -14 -17 -4 -17 -5 -17 -6 -1 0 10 8 22 19 28 11 6 19 18 19 28 -1 16
-2 16 -6 -1 -6 -22 -23 -22 -23 0 0 9 -3 13 -7 9 -4 -4 -8 -44 -9 -89 -2 -45
-3 -84 -4 -87 -1 -3 -2 -24 -2 -48 0 -29 -5 -42 -15 -42 -7 0 -13 7 -11 16 2
10 -3 18 -10 20 -7 1 -8 0 -2 -3 6 -3 6 -11 -1 -25 -8 -15 -8 -19 0 -14 6 4
11 2 11 -4 0 -6 4 -9 9 -5 5 3 13 0 17 -6 4 -8 3 -9 -4 -5 -7 4 -12 3 -12 -3
0 -5 6 -12 13 -15 8 -4 7 -5 -3 -5 -40 3 -39 5 -39 -129 0 -55 -3 -72 -12 -66
-8 5 -9 3 -3 -7 19 -31 15 -49 -12 -49 -14 0 -24 -5 -23 -12 1 -7 1 -89 0
-182 -1 -163 -2 -168 -21 -163 -22 6 -37 -8 -20 -18 7 -4 8 -11 2 -18 -9 -11
-14 -90 -15 -237 0 -30 -2 -49 -5 -42 -2 7 -8 10 -12 7 -5 -3 -12 0 -16 6 -5
8 -3 9 6 4 9 -5 11 -4 6 3 -14 23 -24 12 -24 -25 0 -21 -1 -172 -1 -336 -2
-215 1 -303 10 -313 9 -11 9 -14 -1 -14 -8 0 -11 -2 -8 -5 11 -12 37 7 31 23
-3 12 -2 14 4 4 5 -7 11 -59 12 -115 2 -56 4 -114 4 -129 1 -28 20 -38 32 -18
4 6 3 9 -2 8 -4 -2 -9 0 -10 5 -2 4 -1 7 2 7 3 0 10 0 15 0 6 0 10 -6 9 -12
-1 -7 -1 -39 0 -70 1 -51 3 -56 21 -53 25 5 28 -1 31 -58 2 -42 5 -47 26 -47
19 0 23 -6 24 -32 1 -18 0 -41 -1 -51 -1 -10 4 -17 12 -16 43 5 55 -1 50 -28
-4 -23 -2 -25 17 -20 17 4 24 0 30 -16 5 -12 6 -26 4 -30 -3 -5 1 -8 8 -6 38
5 44 -1 43 -44 -1 -48 3 -60 17 -52 5 4 5 13 -1 25 -8 15 -6 18 8 16 9 -2 18
-12 18 -24 1 -12 2 -34 3 -48 1 -23 3 -25 17 -13 10 8 12 15 5 17 -6 2 -11 8
-11 13 0 5 9 4 19 -3 18 -11 18 -13 3 -26 -13 -11 -14 -13 -2 -9 8 2 21 -2 28
-9 7 -8 8 -14 2 -14 -5 0 -10 -9 -10 -20 0 -11 4 -20 9 -20 15 0 23 18 11 23
-7 4 -6 5 0 3 7 -1 11 -5 10 -10 -3 -14 22 -24 47 -20 21 4 22 2 11 -10 -7 -8
-16 -13 -19 -13 -4 1 -9 -2 -10 -7 -2 -5 16 -11 41 -13 45 -4 62 -16 54 -38
-6 -15 23 -28 32 -14 4 6 11 6 20 -2 10 -8 11 -16 3 -30 -8 -17 -6 -19 21 -19
25 0 30 -4 30 -25 0 -20 5 -25 25 -25 20 0 25 -5 25 -23 0 -24 12 -28 80 -28
9 -1 17 -10 17 -21 2 -27 2 -27 52 -30 32 -2 45 -8 47 -20 1 -11 -3 -15 -12
-11 -8 3 -14 1 -14 -4 0 -8 39 -14 106 -16 21 -1 26 -19 9 -34 -4 -4 -6 -3 -2
2 3 6 -2 11 -12 12 -10 1 -18 -4 -18 -10 0 -7 12 -13 26 -13 126 -7 127 -7
129 -33 3 -32 1 -30 55 -32 27 -1 47 -7 46 -13 -3 -28 3 -36 26 -36 14 0 26
-4 26 -10 1 -5 2 -16 3 -22 2 -19 29 -16 32 4 1 11 -3 15 -12 11 -8 -3 -14 -1
-14 4 0 5 9 9 20 10 16 1 19 -3 16 -22 -3 -14 2 -29 12 -37 12 -10 14 -10 8 0
-5 9 4 12 38 10 25 -2 46 -6 46 -11 0 -4 -11 -5 -24 -3 -18 3 -23 0 -22 -12 2
-8 10 -16 19 -18 10 -1 15 2 11 7 -3 5 0 9 5 9 6 0 11 -4 11 -10 0 -5 13 -10
28 -10 15 0 34 -6 41 -13 11 -9 13 -9 7 1 -5 8 0 12 13 12 13 0 21 -6 21 -17
0 -15 -2 -16 -10 -3 -5 8 -10 10 -10 4 0 -26 31 -35 128 -37 26 0 42 -5 42
-13 0 -20 -17 -25 -24 -8 -7 18 -19 12 -22 -9 -2 -16 78 -20 88 -4 6 9 8 9 8
0 0 -9 17 -13 50 -13 49 0 55 -5 52 -40 0 -4 10 -6 24 -6 14 0 23 5 20 11 -2
7 0 18 6 26 8 11 9 10 4 -3 -3 -10 -1 -18 5 -18 6 0 7 -4 4 -10 -6 -10 3 -11
97 -14 32 -1 42 -5 44 -19 4 -28 7 -29 91 -29 43 0 72 -3 66 -5 -9 -3 -10 -10
-3 -22 5 -10 6 -21 3 -25 -12 -12 23 -6 36 7 11 9 13 9 7 0 -5 -10 8 -13 54
-13 50 0 61 -3 57 -14 -9 -24 14 -33 86 -33 38 -1 70 -3 72 -5 2 -2 28 -3 57
-2 29 1 47 -1 40 -3 -6 -3 -10 -9 -7 -13 3 -5 0 -12 -6 -16 -8 -5 -9 -3 -4 6
6 9 4 11 -5 5 -9 -5 -11 -4 -6 3 4 7 3 12 -2 12 -11 0 -25 -30 -17 -38 3 -3 5
0 5 7 0 7 5 9 13 4 18 -11 34 -13 141 -13 89 -1 99 -3 103 -20 6 -23 2 -22 71
-24 39 -2 56 2 63 13 9 14 10 14 5 -1 -4 -15 1 -18 27 -19 18 0 78 -1 135 -2
56 -1 102 -5 102 -9 0 -4 6 -5 14 -2 8 3 23 1 33 -4 14 -8 10 -10 -19 -7 -26
2 -41 -2 -50 -13 -12 -15 -11 -16 4 -3 10 7 18 9 18 4 0 -6 59 -11 141 -12
104 -2 145 -6 155 -16 17 -17 18 -29 2 -19 -7 4 -9 3 -5 -1 13 -15 36 -14 30
1 -3 9 2 12 16 9 12 -2 19 1 17 8 -1 7 -1 9 1 5 3 -5 9 -8 14 -8 6 0 7 6 3 12
-4 7 -3 9 1 5 12 -10 15 -38 4 -32 -5 4 -17 2 -26 -3 -13 -8 -9 -10 19 -10 30
0 35 3 33 22 -2 14 3 23 11 23 9 0 10 -4 4 -12 -18 -21 6 -37 56 -35 109 4
195 0 189 -9 -3 -5 -1 -13 5 -16 6 -4 9 -1 8 7 -2 9 11 13 44 14 27 1 46 -1
44 -5 -2 -3 8 -15 23 -25 26 -20 26 -20 9 0 -10 12 -18 23 -18 25 0 3 41 5 90
4 87 -1 127 -13 99 -30 -8 -5 -10 -4 -5 3 4 7 4 12 -1 13 -4 0 -21 2 -36 4
-25 3 -27 2 -15 -13 9 -13 7 -12 -10 2 -12 11 -22 15 -22 10 1 -22 18 -31 60
-31 44 0 76 17 62 32 -4 5 -1 5 6 1 9 -6 10 -11 2 -21 -8 -10 -3 -13 22 -13
28 0 1011 -1 1166 -1 29 0 52 5 52 11 0 6 -6 8 -14 5 -8 -3 -20 1 -26 9 -9 10
-9 14 -1 14 6 0 11 -4 11 -10 0 -5 7 -7 15 -4 8 4 13 9 10 13 -2 4 2 8 10 8 8
0 12 -4 9 -9 -6 -10 10 -11 20 -1 4 5 60 9 124 10 348 5 342 4 353 21 10 15
10 15 5 0 -3 -10 -2 -18 3 -18 15 0 20 13 12 29 -8 14 -3 16 25 17 38 0 42 -7
17 -27 -15 -12 -16 -12 -10 3 6 18 -7 26 -17 10 -9 -15 9 -28 36 -28 23 0 25
2 15 15 -10 12 -9 14 7 8 16 -6 17 -5 6 8 -10 12 -10 15 4 15 9 0 16 -6 16
-12 0 -10 2 -10 8 -1 5 8 39 13 92 14 50 1 88 6 92 13 6 8 8 7 8 -1 0 -7 9
-13 21 -13 13 0 18 4 13 13 -5 8 -2 8 9 -2 13 -10 17 -10 17 -1 0 8 4 9 13 3
6 -5 23 -6 37 -2 21 6 22 7 5 8 -12 1 -27 7 -34 14 -9 7 -12 8 -7 0 4 -7 0
-10 -11 -9 -29 4 -26 24 4 23 117 0 202 7 196 17 -3 6 0 5 8 -1 19 -19 39 -16
33 5 -5 14 -4 15 5 2 6 -9 27 -15 51 -16 33 -1 40 2 40 18 0 11 -5 16 -10 13
-6 -4 -7 -12 -3 -18 4 -8 1 -7 -9 1 -11 9 -18 10 -23 2 -3 -5 -11 -10 -16 -10
-6 0 -7 5 -4 10 3 6 1 10 -4 10 -6 0 -11 5 -11 12 0 9 3 9 12 0 16 -16 31 -15
22 1 -5 8 -2 8 9 -2 9 -7 17 -9 17 -4 0 14 71 14 89 0 12 -9 13 -9 7 1 -5 9
10 12 63 12 41 0 71 4 71 10 0 9 -15 14 -33 11 -5 -1 -6 3 -2 8 3 6 13 7 22 4
9 -4 14 -2 10 3 -3 6 12 10 36 11 107 2 167 8 166 18 -4 30 3 35 51 35 33 0
50 4 51 13 1 6 2 18 3 26 0 8 9 15 19 17 9 1 15 -2 11 -7 -3 -5 -9 -7 -13 -4
-5 2 -8 -7 -8 -20 0 -22 2 -24 15 -13 12 10 14 10 8 1 -4 -7 -4 -13 1 -13 4 0
13 12 20 26 10 22 10 24 -3 13 -12 -10 -13 -9 -8 5 4 9 14 16 23 15 9 -1 36
-1 61 0 32 1 41 4 30 11 -18 11 -8 23 14 14 9 -3 13 -11 9 -18 -3 -6 -2 -7 2
-3 12 10 15 38 4 32 -5 -4 -17 -1 -26 5 -16 10 -15 10 4 5 12 -3 24 -2 26 2 3
4 31 8 64 7 32 -1 52 1 46 3 -7 3 -13 9 -13 14 0 6 5 7 12 3 7 -4 8 -3 4 4 -9
15 -38 3 -29 -12 3 -6 2 -7 -2 -3 -18 16 -13 36 8 35 69 -3 128 3 122 12 -3 6
-1 10 5 10 7 0 10 6 7 14 -4 10 0 14 13 13 13 -1 16 -5 9 -13 -6 -8 -3 -16 8
-25 16 -12 17 -12 6 2 -11 13 -9 19 9 35 12 10 18 14 15 7 -5 -7 0 -9 13 -6
12 3 20 14 20 27 0 21 12 26 76 29 11 1 21 7 21 14 0 6 -4 10 -8 8 -4 -3 -9 1
-12 8 -3 7 3 13 12 14 60 3 72 8 68 25 -3 9 2 25 10 35 8 10 12 12 8 6 -4 -9
1 -13 14 -13 12 0 22 6 22 13 1 6 2 19 3 27 1 10 9 14 24 12 17 -3 22 1 21 20
0 22 -1 22 -9 3 -6 -13 -9 -15 -9 -5 0 8 6 23 13 33 7 9 11 27 9 40 -4 19 0
23 19 22 13 0 23 5 23 10 0 6 -4 9 -10 7 -5 -1 0 7 13 17 13 11 30 17 38 14 8
-3 14 -2 13 3 -5 27 3 44 20 44 23 0 38 19 23 29 -7 4 -4 11 8 19 14 8 20 9
20 1 0 -6 7 -4 15 5 8 8 15 22 15 30 0 15 11 20 37 17 7 -1 13 14 15 35 2 21
9 39 16 42 6 2 12 -1 12 -8 0 -6 -4 -8 -10 -5 -5 3 -10 1 -10 -4 0 -6 11 -10
23 -9 20 2 24 8 26 38 1 19 3 40 3 47 1 6 12 9 25 7 20 -4 23 -1 23 31 0 31 3
35 25 35 20 0 25 5 25 25 0 20 5 25 25 25 21 0 25 5 25 30 0 26 3 30 23 26 17
-3 23 1 23 14 0 10 -4 16 -8 14 -4 -3 -8 0 -8 5 0 6 6 11 13 11 8 0 13 10 13
23 -1 17 4 22 22 21 18 0 22 5 23 30 1 17 1 34 0 39 -1 4 8 2 19 -5 25 -16 29
-11 33 43 3 38 7 44 25 43 20 -1 22 5 22 55 0 47 4 58 23 70 20 13 21 13 9 -2
-10 -12 -10 -17 -1 -23 8 -4 9 -3 5 4 -4 7 -3 12 1 12 5 0 10 17 10 38 2 57
10 102 18 110 4 4 5 -2 1 -13 -9 -32 6 -48 30 -30 19 15 19 15 -1 31 -19 15
-19 15 -1 12 18 -3 20 3 19 50 0 33 3 48 8 40 7 -10 9 -10 9 2 0 13 2 13 9 0
12 -17 4 -33 -12 -24 -7 4 -8 3 -4 -1 18 -20 36 -13 35 13 -2 65 6 142 13 130
6 -9 9 -10 9 -1 0 7 7 10 15 7 12 -5 15 4 15 46 0 41 3 51 14 47 16 -6 43 19
32 30 -4 4 -14 8 -22 9 -11 2 -14 -3 -9 -14 5 -13 3 -14 -6 -5 -16 16 -3 33
21 28 18 -3 20 2 20 51 0 31 4 54 11 54 5 0 7 -5 3 -12 -4 -7 -3 -8 5 -4 6 4
8 12 5 18 -5 7 -1 9 9 5 12 -5 17 -1 17 13 0 11 -5 20 -11 20 -5 0 -7 -6 -3
-13 4 -6 4 -9 -1 -5 -4 4 -14 3 -21 -3 -9 -7 -12 -6 -10 7 2 10 11 18 20 20
10 1 20 5 23 7 2 3 5 50 6 105 1 55 5 98 9 96 4 -3 11 4 17 13 6 10 11 14 11
9 0 -5 -7 -17 -16 -27 -13 -15 -13 -19 -1 -31 13 -11 13 -17 2 -39 -12 -21
-12 -26 0 -26 7 0 11 7 7 15 -3 9 -1 13 4 10 5 -4 10 43 12 110 5 172 4 167
29 170 19 3 22 10 22 50 1 55 1 76 1 97 -1 72 4 115 11 103 7 -10 9 -9 9 4 0
9 4 19 8 22 5 3 8 -5 7 -16 -1 -12 -7 -24 -13 -26 -7 -2 -12 -11 -12 -20 0
-13 2 -14 9 -4 4 8 12 12 17 10 4 -1 9 16 11 40 2 31 -1 41 -10 36 -9 -5 -9
-3 0 7 9 8 13 46 13 110 0 91 1 98 19 94 11 -2 24 2 29 8 5 7 10 81 11 166 2
131 5 157 19 168 16 12 16 13 0 7 -14 -5 -18 -1 -18 16 0 19 2 21 15 10 13
-10 18 -11 28 -1 9 10 8 11 -5 6 -10 -4 -18 -3 -18 3 0 6 6 12 12 14 13 5 15
47 19 420 1 93 5 138 13 138 8 0 8 3 0 8 -16 11 -13 270 4 277 8 3 10 0 6 -7
-11 -17 -13 -59 -4 -53 5 3 7 12 3 20 -4 11 0 14 13 9 16 -5 16 -4 4 5 -12 9
-13 13 -2 20 11 6 10 10 -3 15 -9 3 -20 4 -23 2 -4 -2 -7 38 -7 90 0 52 4 94
9 94 4 0 5 -8 2 -17 -6 -17 -5 -17 7 -1 8 10 18 14 22 10 5 -4 5 -1 1 6 -4 7
-12 9 -18 6 -6 -4 -8 -1 -6 7 3 8 10 13 15 12 5 -1 10 5 10 13 0 19 -6 18 -27
-8 l-19 -23 2 22 c0 12 5 19 9 17 4 -3 8 0 8 5 0 6 -4 11 -10 11 -5 0 -10 5
-10 10 0 7 6 7 19 0 15 -7 22 -7 27 2 4 7 4 10 -1 6 -4 -4 -16 -3 -27 3 -22
12 -22 67 -1 84 9 7 10 14 2 25 -9 13 -10 12 -5 -2 3 -10 1 -18 -4 -18 -6 0
-9 18 -8 40 1 25 5 37 12 33 7 -5 7 -2 0 8 -7 8 -12 49 -12 92 -1 206 -2 208
-14 201 -10 -6 -10 -5 -1 7 6 8 11 33 10 56 0 24 -4 37 -8 31 -4 -7 -5 -16 -3
-20 3 -4 2 -8 -3 -8 -21 1 -31 18 -31 55 -3 269 -3 278 -20 253 -9 -13 -16
-26 -15 -29 1 -3 -4 -6 -10 -6 -9 0 -14 34 -15 121 -3 118 -12 147 -37 126 -7
-6 -11 11 -13 53 -1 34 -3 71 -4 82 -3 67 6 204 13 199 5 -3 9 -1 9 5 0 5 -6
11 -12 13 -7 3 -2 7 10 10 20 6 21 3 17 -23 -3 -16 -2 -29 3 -29 4 0 8 18 8
40 0 39 -8 51 -21 30 -3 -5 -12 -10 -18 -10 -7 0 -4 6 5 14 10 7 15 16 11 20
-4 4 0 4 10 0 18 -7 20 6 17 114 -1 53 3 58 46 53 7 -1 12 11 11 26 -1 104 7
222 14 217 5 -3 9 0 9 5 0 6 5 10 12 8 8 -1 12 25 14 86 1 51 8 94 15 103 10
12 9 13 -3 9 -13 -5 -14 0 -8 32 3 22 6 62 4 91 -1 47 0 51 13 35 13 -17 14
-17 8 3 -3 13 0 28 9 36 20 21 24 621 4 646 -11 13 -11 14 0 8 10 -6 12 2 11
33 -2 23 -6 41 -10 41 -14 0 -30 -30 -23 -42 5 -10 4 -10 -6 -1 -11 10 -11 15
0 28 7 8 9 15 4 15 -8 0 -14 71 -17 192 -1 15 -5 24 -9 22 -4 -3 -8 4 -8 16 0
13 4 19 12 14 7 -4 8 -3 4 5 -13 20 -28 0 -23 -29 4 -17 0 -35 -9 -46 -14 -18
-14 -18 -4 4 8 16 8 22 0 22 -6 0 -10 8 -9 18 1 9 1 36 0 58 -1 32 -5 41 -18
41 -43 0 -46 2 -32 20 11 13 11 17 2 20 -7 3 -13 15 -13 28 0 17 -6 25 -22 27
-22 3 -27 17 -29 80 0 10 -3 17 -7 17 -30 -5 -42 3 -42 26 0 23 -8 29 -36 26
-6 -1 -11 5 -12 11 0 7 -3 31 -4 53 -3 34 -7 40 -26 39 -12 -1 -22 2 -22 7 0
4 -12 7 -27 6 -19 -1 -27 2 -25 12 2 9 -3 11 -15 7 -16 -5 -15 -4 1 9 15 11
16 15 5 15 -8 0 -21 -6 -28 -12 -8 -8 -11 -8 -8 -2 4 7 -1 18 -10 25 -12 10
-14 10 -9 2 5 -9 1 -13 -13 -13 -13 0 -21 8 -23 23 -3 22 -8 24 -87 29 -19 1
-29 4 -23 6 5 1 8 12 5 22 -4 16 -14 20 -52 20 -26 0 -53 6 -60 13 -11 10 -13
9 -7 -1 6 -9 -4 -12 -38 -10 -25 0 -46 5 -46 10 0 5 5 6 10 3 6 -3 10 -1 10 5
0 7 -7 9 -16 6 -9 -3 -18 -6 -20 -6 -3 0 -3 -4 0 -8 2 -4 -4 -8 -14 -8 -10 0
-16 4 -14 8 3 4 0 8 -5 8 -6 0 -11 -6 -11 -12 0 -9 -4 -8 -10 2 -5 8 -10 10
-10 5 0 -6 -11 -12 -25 -13 -14 -1 -25 2 -25 6 0 4 8 8 18 9 27 2 51 9 58 16
4 4 13 2 19 -3 9 -7 16 -6 23 3 9 10 -1 13 -50 12 -38 -1 -63 -6 -66 -13 -2
-7 -8 -10 -13 -7 -5 4 -6 0 -3 -8 2 -7 -1 -14 -8 -14 -7 -1 -57 -2 -110 -3
-54 -1 -98 -7 -98 -12 0 -5 6 -6 13 -2 8 5 8 2 -2 -9 -17 -21 -3 -22 20 -1 14
12 18 13 25 2 4 -7 3 -10 -1 -5 -5 4 -16 0 -25 -8 -9 -8 -39 -15 -73 -16 -41
-2 -57 -6 -53 -14 8 -21 -16 -35 -61 -35 -24 0 -44 -4 -44 -10 -1 -5 -2 -15
-3 -22 0 -6 -12 -13 -26 -15 l-25 -4 23 16 c29 21 28 30 -3 31 -14 1 -25 -2
-25 -7 0 -5 5 -9 11 -9 6 0 4 -7 -5 -15 -9 -9 -34 -16 -60 -17 -41 0 -45 -3
-48 -27 -2 -16 -9 -26 -19 -26 -9 0 -24 -8 -33 -18 -10 -9 -13 -17 -7 -17 6 0
11 -4 11 -8 0 -5 -19 -9 -41 -10 -47 -2 -71 -16 -62 -38 4 -10 0 -15 -8 -14
-31 5 -50 0 -43 -12 5 -7 3 -8 -7 -2 -24 14 -37 13 -34 -5 1 -10 10 -15 25
-13 12 2 20 0 17 -5 -3 -5 -27 -10 -54 -12 -55 -3 -54 -2 -56 -30 -1 -21 -15
-25 -74 -23 -15 1 -21 -5 -20 -18 1 -10 5 -16 9 -14 5 3 6 10 2 15 -3 6 3 5
15 -3 27 -17 27 -24 -1 -25 -101 -4 -136 -8 -127 -14 6 -3 11 -10 12 -15 1 -5
8 -9 15 -10 6 -1 10 2 7 6 -3 5 -2 11 3 14 4 2 8 -4 9 -14 1 -11 -5 -19 -15
-19 -9 0 -32 -1 -49 -1 -28 -1 -33 -5 -33 -26 0 -25 -1 -25 -74 -22 -71 2 -87
12 -61 35 4 5 5 1 0 -7 -5 -8 -5 -12 0 -8 4 4 16 3 27 -3 17 -9 19 -9 10 7
-11 19 -25 22 -135 25 -68 2 -84 9 -71 31 5 8 10 7 18 -4 12 -16 46 -20 46 -5
0 5 -7 7 -15 4 -8 -4 -17 -2 -20 3 -3 4 0 10 7 12 7 3 -42 6 -107 8 -66 1
-130 3 -142 3 -13 1 -23 5 -23 10 0 5 -6 4 -14 -2 -11 -10 -16 -9 -24 5 -5 9
-15 14 -21 10 -6 -4 -8 -12 -5 -18 5 -7 2 -8 -5 -3 -10 6 -9 11 4 24 15 15 17
15 30 -2 13 -18 14 -18 24 0 6 10 11 13 11 6 0 -6 8 -12 18 -12 9 0 29 -2 44
-4 19 -3 25 0 21 9 -3 8 -9 11 -14 8 -5 -3 -9 0 -9 5 0 6 -5 11 -11 11 -5 0
-7 -4 -4 -10 3 -5 1 -10 -4 -10 -6 0 -11 3 -11 8 0 4 -57 8 -127 10 -125 3
-137 5 -139 23 -1 5 -2 13 -3 17 0 5 -8 9 -17 9 -14 0 -14 -2 -3 -11 34 -27
14 -37 -53 -27 -12 2 -9 31 3 31 5 0 8 -4 4 -9 -7 -12 12 -24 25 -16 20 12 -2
31 -38 32 -217 4 -273 6 -277 13 -3 5 -1 11 5 15 6 4 8 11 4 16 -3 6 -16 3
-31 -7 -19 -12 -25 -13 -21 -3 4 11 -14 14 -93 16 -72 1 -97 -2 -92 -10 5 -9
3 -9 -8 0 -9 7 -68 12 -164 13 -323 4 -514 2 -526 -5 -8 -6 -10 -4 -4 6 6 10
5 11 -3 4 -7 -6 -55 -8 -123 -5 -124 6 -115 -1 -124 84 -4 38 -20 60 -38 49
-4 -3 -8 1 -6 8 1 8 1 28 0 46 -1 26 -4 30 -21 26 -20 -5 -20 -6 -3 -27 l18
-21 -23 19 c-12 11 -22 24 -21 30 5 40 -2 53 -25 51 -16 -2 -23 2 -23 14 0 66
-4 79 -23 84 -13 3 -18 1 -13 -6 5 -9 3 -9 -8 0 -8 7 -14 27 -14 47 1 21 -2
33 -8 29 -7 -4 -8 1 -3 13 4 10 4 15 0 12 -14 -14 -45 13 -39 33 4 10 2 19 -3
19 -13 0 -24 -29 -15 -42 3 -7 1 -8 -6 -4 -7 5 -9 16 -5 28 4 13 2 18 -4 14
-5 -3 -13 1 -16 10 -3 8 -2 13 3 10 5 -4 7 3 4 14 -3 13 -13 19 -27 17 -17 -2
-22 4 -24 31 -2 17 -7 32 -12 32 -5 0 -10 10 -12 23 -2 12 -10 22 -18 22 -9 0
-15 10 -15 25 0 18 -5 25 -20 25 -15 0 -19 -6 -17 -25 4 -36 -10 -16 -15 22
-3 18 -5 39 -6 46 0 7 -15 12 -36 13 -20 0 -30 3 -23 6 6 2 12 14 12 25 0 16
-5 19 -25 16 -14 -3 -28 -2 -30 3 -3 4 -14 6 -24 4 -13 -2 -18 2 -17 12 2 9
10 17 19 19 10 1 15 -2 12 -6 -3 -5 0 -12 6 -15 7 -5 10 0 7 11 -3 20 -6 21
-63 23 -32 1 -35 4 -35 31 0 27 -2 29 -25 20 -21 -8 -25 -7 -25 10 0 11 5 20
10 20 6 0 10 5 10 10 0 6 -3 9 -7 9 -5 -1 -23 -1 -42 0 -30 1 -32 3 -20 18 12
15 12 16 -1 8 -11 -6 -11 -4 2 11 16 18 15 19 -14 21 -18 1 -35 8 -39 15 -5 7
-13 14 -19 14 -23 3 -24 5 -10 15 12 8 12 10 1 7 -8 -2 -15 -12 -17 -22 -4
-31 -14 -31 -14 0 0 28 -1 29 -52 28 -36 -1 -46 1 -35 8 10 5 21 7 25 4 5 -3
9 1 9 8 0 8 -7 12 -15 8 -9 -3 -13 -1 -9 4 3 6 -19 11 -56 13 -111 4 -126 6
-137 17 -9 9 -9 14 1 19 8 6 10 4 4 -6 -5 -8 -5 -11 0 -7 4 4 15 2 23 -5 13
-9 14 -9 8 1 -4 6 -3 12 3 12 5 0 13 -4 16 -10 3 -5 12 -10 18 -10 8 0 8 3 -1
9 -8 4 -12 12 -10 16 1 5 -16 9 -39 10 -23 1 -40 -2 -37 -7 3 -4 0 -8 -7 -8
-8 0 -8 -4 1 -15 7 -8 8 -15 4 -15 -5 0 -15 9 -22 21 -8 12 -9 18 -3 14 6 -3
11 -2 11 3 0 5 -25 9 -56 9 -48 -1 -55 -4 -51 -19 4 -15 2 -16 -14 -7 -10 5
-19 12 -19 15 0 3 5 2 10 -1 6 -3 10 -1 10 4 0 6 -12 11 -27 11 -25 0 -25 -1
-10 -18 10 -10 17 -22 17 -26 0 -5 -9 2 -19 15 -15 19 -29 24 -70 25 -28 0
-52 -3 -52 -8z m21 -18 c0 -11 -4 -20 -9 -20 -7 0 -8 17 -2 38 4 10 11 -2 11
-18z m70 3 c0 -8 4 -12 9 -8 5 3 12 2 15 -3 2 -4 -6 -8 -19 -8 -16 0 -21 4
-17 16 5 13 3 13 -11 1 -9 -7 -17 -10 -17 -5 0 5 -5 2 -10 -6 -7 -12 -9 -11
-8 5 1 15 9 21 30 22 18 0 28 -4 28 -14z m140 3 c-7 -7 -13 -7 -20 0 -6 6 -3
10 10 10 13 0 16 -4 10 -10z m30 -16 c0 -5 -4 -10 -10 -10 -5 0 -10 5 -10 10
0 6 5 10 10 10 6 0 10 -4 10 -10z m235 -30 c3 -5 1 -10 -4 -10 -6 0 -11 5 -11
10 0 6 2 10 4 10 3 0 8 -4 11 -10z m135 -72 c0 -4 -7 -8 -15 -8 -8 0 -15 4
-15 8 0 5 7 9 15 9 8 0 15 -4 15 -9z m-927 -25 c-7 -2 -19 -2 -25 0 -7 3 -2 5
12 5 14 0 19 -2 13 -5z m-8 -23 c-3 -5 -12 -10 -18 -10 -7 0 -6 4 3 10 19 12
23 12 15 0z m-40 -49 c3 -5 2 -12 -3 -15 -5 -3 -9 1 -9 9 0 17 3 19 12 6z
m1305 -201 c0 -5 -2 -10 -4 -10 -3 0 -8 5 -11 10 -3 6 -1 10 4 10 6 0 11 -4
11 -10z m-1573 -47 c1 -22 -1 -24 -8 -10 -6 9 -7 22 -4 27 9 14 10 13 12 -17z
m1653 -2 c0 -6 -4 -12 -8 -15 -5 -3 -9 1 -9 9 0 8 4 15 9 15 4 0 8 -4 8 -9z
m30 -53 c0 -16 -3 -19 -11 -11 -6 6 -8 16 -5 22 11 17 16 13 16 -11z m-1776
-96 c3 -5 -1 -9 -9 -9 -8 0 -12 4 -9 9 3 4 7 8 9 8 2 0 6 -4 9 -8z m-47 -65
c0 -7 -9 -14 -20 -14 -19 -2 -19 -2 -1 12 11 8 19 15 20 15 0 0 1 -6 1 -13z
m1976 -47 c3 -13 0 -20 -9 -20 -8 0 -14 9 -14 20 0 11 4 20 9 20 5 0 11 -9 14
-20z m-2023 -90 c0 -5 -2 -10 -4 -10 -3 0 -8 5 -11 10 -3 6 -1 10 4 10 6 0 11
-4 11 -10z m5735 0 c3 -5 1 -10 -4 -10 -6 0 -11 5 -11 10 0 6 2 10 4 10 3 0 8
-4 11 -10z m-5785 -116 c0 -8 -19 -13 -24 -6 -3 5 1 9 9 9 8 0 15 -2 15 -3z
m6386 -97 c-1 -11 -8 -21 -17 -23 -11 -1 -16 4 -14 15 2 9 4 19 4 22 2 16 28
3 27 -14z m-4106 -16 c0 -4 -7 -8 -15 -8 -16 0 -20 9 -9 20 8 8 24 -1 24 -12z
m-13 -36 c0 -8 -4 -12 -9 -9 -5 3 -6 10 -3 15 9 13 12 11 12 -6z m1154 -102
c9 -9 18 -7 38 5 22 14 24 14 14 1 -7 -9 -10 -18 -7 -22 8 -8 -69 -3 -83 6 -6
4 -13 4 -16 0 -2 -5 -2 -2 0 5 1 8 -3 12 -9 9 -7 -2 -12 -10 -10 -16 1 -7 -2
-10 -8 -6 -8 5 -8 11 0 20 13 16 65 14 81 -2z m3063 1 c9 -23 4 -24 -16 -2
-14 14 -15 18 -4 18 8 0 17 -7 20 -16z m-3221 -9 c-3 -9 -8 -14 -10 -11 -3 3
-2 9 2 15 9 16 15 13 8 -4z m57 -5 c0 -5 -2 -10 -4 -10 -3 0 -8 5 -11 10 -3 6
-1 10 4 10 6 0 11 -4 11 -10z m3145 0 c3 -5 1 -10 -4 -10 -6 0 -11 5 -11 10 0
6 2 10 4 10 3 0 8 -4 11 -10z m-6619 -38 c0 -10 -8 -19 -18 -19 -11 -1 -18 5
-18 15 0 15 2 15 10 2 8 -13 10 -12 10 3 0 9 4 17 8 17 4 0 8 -8 8 -18z m3864
14 c0 -2 -8 -10 -17 -17 -16 -13 -17 -12 -4 4 13 16 21 21 21 13z m29 -29 c0
-9 -2 -8 -6 1 -2 6 -10 9 -15 6 -7 -4 -8 -2 -4 5 9 13 26 5 25 -12z m1151 13
c0 -5 -2 -10 -4 -10 -3 0 -8 5 -11 10 -3 6 -1 10 4 10 6 0 11 -4 11 -10z
m1760 -274 c0 -3 -4 -8 -10 -11 -5 -3 -10 -1 -10 4 0 6 5 11 10 11 6 0 10 -2
10 -4z m-7025 -495 c3 -5 2 -12 -3 -15 -5 -3 -9 1 -9 9 0 17 3 19 12 6z m7062
-353 c-2 -12 -10 -24 -18 -26 -11 -3 -12 -2 -1 6 8 5 13 12 13 16 -2 15 -1 26
4 26 3 0 3 -10 2 -22z m-57 -338 c0 -5 -2 -10 -4 -10 -3 0 -8 5 -11 10 -3 6
-1 10 4 10 6 0 11 -4 11 -10z m10 -59 c-15 -29 -26 -32 -27 -8 -2 17 0 19 7 7
8 -13 10 -12 10 3 0 9 5 17 10 17 7 0 7 -6 0 -19z m-7774 -120 c0 -11 -5 -17
-13 -14 -10 4 -11 9 -2 19 15 18 15 18 15 -5z m-66 -41 c0 -5 -2 -10 -4 -10
-3 0 -8 5 -11 10 -3 6 -1 10 4 10 6 0 11 -4 11 -10z m7774 -38 c3 -5 -1 -9 -9
-9 -8 0 -12 4 -9 9 3 4 7 8 9 8 2 0 6 -4 9 -8z m12 -55 c19 -4 10 -23 -11 -23
-15 0 -22 5 -20 16 2 8 4 20 4 25 1 6 5 4 10 -3 4 -8 12 -14 17 -15z m-8020
-269 c3 -4 -1 -5 -10 -4 -8 1 -18 5 -22 8 -3 4 1 5 10 4 8 -1 18 -5 22 -8z
m7900 -183 c-1 -8 -5 -17 -8 -21 -5 -4 -4 16 1 34 3 9 9 -1 7 -13z m-8325
-548 c-10 -9 -11 -8 -5 6 3 10 9 15 12 12 3 -3 0 -11 -7 -18z m-31 -87 c0 -5
-4 -10 -10 -10 -5 0 -10 5 -10 10 0 6 5 10 10 10 6 0 10 -4 10 -10z m-10 -20
c13 -8 13 -10 -2 -10 -9 0 -20 5 -23 10 -8 13 5 13 25 0z m8530 -39 c0 -6 -4
-12 -8 -15 -5 -3 -9 1 -9 9 0 8 4 15 9 15 4 0 8 -4 8 -9z m16 -17 c-4 -9 -9
-15 -11 -12 -3 3 -3 13 1 22 4 9 9 15 11 12 3 -3 3 -13 -1 -22z m1 -59 c0 -8
-4 -12 -9 -9 -5 3 -6 10 -3 15 9 13 12 11 12 -6z m-8650 -130 c0 -18 -30 -12
-33 7 -1 10 4 14 15 11 10 -2 18 -10 18 -18z m-125 -271 c-9 -16 -10 -14 -9 8
1 15 6 23 11 18 4 -4 4 -16 -2 -26z m-27 -135 c2 -9 -6 -16 -19 -16 -20 -2
-20 -1 -2 9 15 8 16 12 5 20 -12 8 -12 9 0 6 8 -2 15 -11 16 -19z m-70 -138
c3 -5 2 -12 -3 -15 -5 -3 -9 1 -9 9 0 17 3 19 12 6z m22 -87 c-3 -3 -12 -4
-19 -1 -8 3 -5 6 6 6 11 1 17 -2 13 -5z m-47 -122 c0 -5 -7 -9 -15 -9 -8 0
-15 4 -15 9 0 4 7 8 15 8 8 0 15 -4 15 -8z m-5 -51 c3 -5 2 -12 -3 -15 -5 -3
-9 1 -9 9 0 17 3 19 12 6z m-103 -418 c-6 -9 -17 -18 -26 -19 -9 -1 -14 2 -10
7 3 5 9 7 14 4 4 -3 10 2 14 10 3 8 8 15 11 15 3 0 2 -8 -3 -17z m9001 -48
c-3 -9 -8 -14 -10 -11 -3 3 -2 9 2 15 9 16 15 13 8 -4z m-7 -52 c-4 -4 -12 -1
-19 7 -9 10 -9 11 1 6 7 -4 12 -2 13 6 0 11 2 11 6 0 3 -7 2 -16 -1 -19z m11
-58 c-1 -19 -8 -37 -16 -40 -23 -9 -26 4 -5 21 10 8 14 13 7 10 -6 -4 -15 -1
-19 5 -4 8 -3 9 4 5 7 -4 12 -3 12 3 0 5 -3 11 -7 14 -5 2 -2 2 5 1 6 -2 12 1
12 6 0 6 2 10 4 10 3 0 4 -16 3 -35z m-57 -332 c-8 -3 -20 -10 -26 -14 -6 -5
-11 -4 -11 4 0 7 12 13 26 14 14 1 19 -1 11 -4z m-9055 -13 c3 -6 -1 -7 -9 -4
-18 7 -21 14 -7 14 6 0 13 -4 16 -10z m9061 -40 c-1 -22 -5 -40 -9 -40 -4 0
-13 0 -20 0 -8 0 -14 7 -14 15 0 13 4 12 21 -2 12 -10 15 -11 9 -3 -15 17 -17
34 -3 25 6 -3 7 1 3 10 -4 13 -8 14 -14 4 -4 -8 -11 -10 -16 -6 -9 9 17 28 29
21 4 -3 8 0 8 5 0 6 2 11 4 11 2 0 3 -18 2 -40z m-66 -244 c0 -3 -4 -8 -10
-11 -5 -3 -10 -1 -10 4 0 6 5 11 10 11 6 0 10 -2 10 -4z m-9044 -68 c4 4 2 -1
-5 -10 -9 -12 -10 -18 -2 -18 6 0 11 -4 11 -10 0 -5 -6 -9 -12 -7 -7 1 -11 -5
-10 -13 2 -8 0 -11 -4 -7 -12 12 -13 36 -3 43 6 3 5 12 -3 22 -11 15 -11 15 3
5 9 -7 20 -9 25 -5z m4 -78 c0 -5 -5 -10 -11 -10 -5 0 -7 5 -4 10 3 6 8 10 11
10 2 0 4 -4 4 -10z m8995 -151 c-4 -5 -14 -8 -23 -8 -15 1 -15 2 1 6 9 2 14 9
11 15 -4 7 -2 8 5 4 6 -4 9 -12 6 -17z m-9050 -109 c3 -6 -1 -7 -9 -4 -18 7
-21 14 -7 14 6 0 13 -4 16 -10z m-22 -595 c-7 -21 -12 -19 -10 4 0 11 5 18 9
15 4 -3 5 -11 1 -19z m77 -220 c0 -7 -30 -13 -34 -7 -3 4 4 9 15 9 10 1 19 0
19 -2z m8695 -45 c3 -5 1 -10 -4 -10 -6 0 -11 5 -11 10 0 6 2 10 4 10 3 0 8
-4 11 -10z m-8661 -78 c3 -5 -1 -9 -9 -9 -8 0 -12 4 -9 9 3 4 7 8 9 8 2 0 6
-4 9 -8z m8595 -13 c-22 -13 -31 -11 -17 5 7 8 17 12 22 9 4 -3 2 -9 -5 -14z
m-8536 -99 c-3 -11 -9 -20 -15 -20 -5 0 -4 9 2 20 6 11 12 20 14 20 2 0 2 -9
-1 -20z m8478 -23 c-10 -9 -11 -8 -5 6 3 10 9 15 12 12 3 -3 0 -11 -7 -18z
m-8416 -88 c2 -9 -6 -15 -19 -15 -13 0 -22 6 -22 16 0 21 38 19 41 -1z m8385
1 c0 -5 -4 -10 -10 -10 -5 0 -10 5 -10 10 0 6 5 10 10 10 6 0 10 -4 10 -10z
m-8335 -48 c-3 -3 -11 0 -18 7 -9 10 -8 11 6 5 10 -3 15 -9 12 -12z m33 -57
c-3 -3 -9 2 -12 12 -6 14 -5 15 5 6 7 -7 10 -15 7 -18z m8186 -41 c8 -22 8
-24 -7 -18 -8 3 -14 11 -14 19 0 20 13 19 21 -1z m-184 -254 c0 -5 -2 -10 -4
-10 -3 0 -8 5 -11 10 -3 6 -1 10 4 10 6 0 11 -4 11 -10z m-60 -61 c0 -5 -4 -9
-8 -9 -5 0 -9 7 -9 15 0 8 4 12 9 9 4 -3 8 -9 8 -15z m-7469 -88 c-7 -5 -17
-15 -22 -22 -6 -10 -8 -8 -7 7 1 12 10 21 22 22 15 1 17 -1 7 -7z m7286 -73
c-3 -8 -6 -5 -6 6 -1 11 2 17 5 13 3 -3 4 -12 1 -19z m-197 -238 c0 -5 -5 -10
-11 -10 -5 0 -7 5 -4 10 3 6 8 10 11 10 2 0 4 -4 4 -10z m15 -19 c-3 -6 -11
-11 -16 -11 -5 0 -4 6 3 14 14 16 24 13 13 -3z m-61 -49 c3 -5 -1 -9 -9 -9 -8
0 -12 4 -9 9 3 4 7 8 9 8 2 0 6 -4 9 -8z m-6214 -39 c0 -3 -6 -3 -12 0 -7 2
-19 -3 -26 -12 -11 -14 -12 -13 -2 6 6 14 16 20 25 17 8 -4 15 -8 15 -11z
m150 -43 c-35 -24 -54 -31 -30 -11 14 11 30 21 35 21 6 0 3 -5 -5 -10z m140
-47 c-1 -18 -18 -35 -24 -24 -4 6 -1 11 6 11 9 0 9 3 -2 10 -13 8 -12 10 3 10
9 0 17 -3 17 -7z m350 -123 c0 -5 -2 -10 -4 -10 -3 0 -8 5 -11 10 -3 6 -1 10
4 10 6 0 11 -4 11 -10z m188 -44 c12 4 11 2 -3 -7 -21 -14 -45 -20 -45 -13 0
11 25 31 28 24 2 -5 11 -7 20 -4z m4692 2 c0 -4 -3 -8 -7 -9 -5 0 -16 -2 -26
-4 -14 -3 -15 0 -8 9 12 14 41 17 41 4z m-4640 -12 c0 -2 -7 -7 -16 -10 -8 -3
-12 -2 -9 4 6 10 25 14 25 6z m400 -96 c0 -11 -4 -20 -10 -20 -5 0 -14 9 -20
20 -9 17 -8 20 10 20 13 0 20 -7 20 -20z m38 12 c12 10 14 10 8 1 -4 -8 -2
-13 4 -13 6 0 8 -5 4 -11 -4 -8 -9 -7 -15 2 -7 11 -9 11 -9 -1 0 -13 -1 -13
-10 0 -5 8 -9 20 -9 25 0 6 3 4 6 -3 4 -10 8 -10 21 0z m3419 -74 c-3 -7 -5
-2 -5 12 0 14 2 19 5 13 2 -7 2 -19 0 -25z m-2757 -28 c0 -4 -7 -7 -15 -6 -23
3 -26 12 -5 13 11 1 20 -2 20 -7z m2408 -4 c-10 -7 -14 -17 -10 -21 4 -5 1 -5
-7 0 -12 7 -11 10 4 22 24 17 36 17 13 -1z m-48 -10 c0 -3 -4 -8 -10 -11 -5
-3 -10 -1 -10 4 0 6 5 11 10 11 6 0 10 -2 10 -4z m-1620 -30 c0 -2 -8 -10 -17
-17 -16 -13 -17 -12 -4 4 13 16 21 21 21 13z m1037 -9 c0 -8 -6 -14 -14 -14
-9 0 -10 4 -2 14 6 7 12 13 14 13 1 0 2 -6 2 -13z m78 -17 c3 -6 -1 -7 -9 -4
-18 7 -21 14 -7 14 6 0 13 -4 16 -10z"/>
<path d="M6404 8572 c4 -3 14 -7 22 -8 9 -1 13 0 10 4 -4 3 -14 7 -22 8 -9 1
-13 0 -10 -4z"/>
<path d="M9586 6738 c3 -5 10 -6 15 -3 13 9 11 12 -6 12 -8 0 -12 -4 -9 -9z"/>
<path d="M4279 9753 c-13 -16 -12 -17 4 -4 9 7 17 15 17 17 0 8 -8 3 -21 -13z"/>
<path d="M3587 9662 c3 -7 8 -10 11 -8 3 3 11 1 19 -5 9 -9 13 -8 13 0 0 6 -5
11 -11 11 -5 0 -8 4 -5 8 2 4 -4 8 -14 8 -11 0 -16 -6 -13 -14z"/>
<path d="M4636 9543 c-6 -14 -5 -15 5 -6 7 7 10 15 7 18 -3 3 -9 -2 -12 -12z"/>
<path d="M4673 9495 c0 -8 4 -12 9 -9 5 3 6 10 3 15 -9 13 -12 11 -12 -6z"/>
<path d="M3170 9239 c0 -5 5 -7 10 -4 6 3 10 8 10 11 0 2 -4 4 -10 4 -5 0 -10
-5 -10 -11z"/>
<path d="M8944 8949 c-3 -6 -2 -15 3 -20 5 -5 9 -1 9 11 0 23 -2 24 -12 9z"/>
<path d="M5198 8903 c6 -2 9 -10 6 -15 -4 -7 -2 -8 5 -4 13 9 5 26 -12 25 -9
0 -8 -2 1 -6z"/>
<path d="M8520 8880 c0 -5 5 -10 11 -10 5 0 7 5 4 10 -3 6 -8 10 -11 10 -2 0
-4 -4 -4 -10z"/>
<path d="M9130 8886 c0 -2 7 -7 16 -10 8 -3 12 -2 9 4 -6 10 -25 14 -25 6z"/>
<path d="M8414 8841 c0 -11 5 -17 13 -14 10 4 11 9 2 19 -15 18 -15 18 -15 -5z"/>
<path d="M2941 8797 c-1 -11 -6 -15 -13 -11 -7 5 -8 3 -3 -5 10 -16 29 2 22
21 -4 8 -6 7 -6 -5z"/>
<path d="M9333 8795 c0 -8 4 -12 9 -9 5 3 6 10 3 15 -9 13 -12 11 -12 -6z"/>
<path d="M5290 8756 c0 -2 7 -7 16 -10 8 -3 12 -2 9 4 -6 10 -25 14 -25 6z"/>
<path d="M9430 8691 c0 -9 30 -24 36 -18 2 1 -6 8 -16 15 -11 7 -20 8 -20 3z"/>
<path d="M8093 8675 c0 -8 4 -12 9 -9 4 3 8 9 8 15 0 5 -4 9 -8 9 -5 0 -9 -7
-9 -15z"/>
<path d="M2875 8670 c3 -5 8 -10 11 -10 2 0 4 5 4 10 0 6 -5 10 -11 10 -5 0
-7 -4 -4 -10z"/>
<path d="M5352 8634 c-7 -8 -8 -14 -3 -14 10 0 25 19 20 25 -2 1 -10 -3 -17
-11z"/>
<path d="M9530 8526 c0 -2 7 -7 16 -10 8 -3 12 -2 9 4 -6 10 -25 14 -25 6z"/>
<path d="M9596 8434 c-8 -22 -8 -23 9 -20 22 3 24 10 10 23 -10 10 -14 9 -19
-3z"/>
<path d="M2715 8231 c-3 -6 3 -9 14 -8 11 0 17 5 15 9 -7 11 -22 10 -29 -1z"/>
<path d="M9690 8180 c0 -5 5 -10 11 -10 5 0 7 5 4 10 -3 6 -8 10 -11 10 -2 0
-4 -4 -4 -10z"/>
<path d="M9703 8138 c-19 -31 -9 -54 17 -37 12 7 12 9 1 9 -10 0 -11 3 -2 14
8 9 8 16 2 20 -5 4 -13 1 -18 -6z"/>
<path d="M2613 7855 c0 -8 4 -12 9 -9 5 3 6 10 3 15 -9 13 -12 11 -12 -6z"/>
<path d="M9719 7353 c-1 -5 -2 -17 -3 -28 -1 -11 -6 -19 -13 -18 -6 1 -10 -5
-9 -15 2 -9 9 -18 17 -20 11 -2 15 9 15 43 1 40 -3 59 -7 38z"/>
<path d="M9712 7241 c-11 -7 -11 -9 0 -14 9 -3 15 1 15 9 0 8 -1 14 -1 14 -1
0 -7 -4 -14 -9z"/>
<path d="M9660 6939 c0 -5 5 -7 10 -4 6 3 10 8 10 11 0 2 -4 4 -10 4 -5 0 -10
-5 -10 -11z"/>
<path d="M9588 6693 c10 -4 10 -8 0 -21 -12 -15 -11 -16 5 -3 9 7 17 17 17 22
0 5 -8 9 -17 8 -12 0 -13 -2 -5 -6z"/>
<path d="M9604 6658 l-19 -23 23 19 c21 18 27 26 19 26 -2 0 -12 -10 -23 -22z"/>
<path d="M1656 6641 c4 -17 3 -21 -6 -16 -9 6 -11 4 -5 -4 5 -9 11 -9 17 -3 7
7 6 16 -1 29 -11 16 -11 15 -5 -6z"/>
<path d="M9533 6441 c0 -11 5 -18 9 -15 4 3 5 11 1 19 -7 21 -12 19 -10 -4z"/>
<path d="M1501 6445 c0 -5 3 -16 8 -23 7 -11 9 -10 14 3 4 9 3 14 -2 10 -5 -3
-12 1 -14 7 -3 7 -6 9 -6 3z"/>
<path d="M9543 6198 c-6 -7 -10 -21 -10 -32 0 -17 2 -17 12 -2 7 8 15 13 18
10 3 -3 4 1 3 10 -3 23 -12 28 -23 14z"/>
<path d="M1336 6183 c-6 -14 -5 -15 5 -6 7 7 10 15 7 18 -3 3 -9 -2 -12 -12z"/>
<path d="M1350 6165 c-7 -9 -8 -15 -2 -15 5 0 12 7 16 15 3 8 4 15 2 15 -2 0
-9 -7 -16 -15z"/>
<path d="M1245 5970 c-11 -5 -18 -9 -15 -10 25 -7 37 -6 37 6 0 8 -1 14 -1 13
-1 0 -10 -4 -21 -9z"/>
<path d="M9590 5960 c-13 -8 -12 -10 3 -10 9 0 17 5 17 10 0 12 -1 12 -20 0z"/>
<path d="M9585 5929 c-11 -17 1 -21 15 -4 8 9 8 15 2 15 -6 0 -14 -5 -17 -11z"/>
<path d="M9666 5716 c6 -15 4 -17 -6 -11 -9 6 -11 4 -5 -4 5 -9 10 -10 18 -2
8 8 7 14 -2 24 -10 10 -11 8 -5 -7z"/>
<path d="M9643 5664 c0 -17 2 -22 7 -13 5 6 6 18 3 26 -8 19 -10 16 -10 -13z"/>
<path d="M1056 5563 c-6 -14 -5 -15 5 -6 7 7 10 15 7 18 -3 3 -9 -2 -12 -12z"/>
<path d="M926 5308 c3 -4 11 -5 19 -1 21 7 19 12 -4 10 -11 0 -18 -5 -15 -9z"/>
<path d="M9716 5207 c3 -10 9 -15 12 -12 3 3 0 11 -7 18 -10 9 -11 8 -5 -6z"/>
<path d="M9712 5165 c4 -4 0 -14 -10 -21 -9 -7 -12 -14 -6 -14 6 0 17 6 23 14
9 11 9 16 -1 22 -7 4 -10 4 -6 -1z"/>
<path d="M9700 5110 c8 -5 20 -10 25 -10 6 0 3 5 -5 10 -8 5 -19 10 -25 10 -5
0 -3 -5 5 -10z"/>
<path d="M824 5059 c-3 -6 -1 -16 5 -22 9 -9 10 -7 5 7 -5 13 -4 17 4 12 7 -4
12 -2 12 3 0 14 -17 14 -26 0z"/>
<path d="M9709 4974 c-17 -20 -20 -44 -7 -44 6 0 4 -7 -3 -17 -10 -11 -10 -14
-1 -9 14 8 16 -6 3 -19 -6 -6 -3 -18 8 -32 18 -21 18 -21 17 18 0 21 -3 39 -6
39 -3 0 -6 9 -7 20 -1 11 2 18 6 16 4 -3 7 6 7 20 0 28 0 28 -17 8z m8 -99 c0
-8 -4 -12 -9 -9 -5 3 -6 10 -3 15 9 13 12 11 12 -6z"/>
<path d="M9708 4749 c-10 -10 -13 -19 -7 -19 8 0 8 -4 1 -13 -8 -10 -6 -13 11
-14 12 0 16 1 9 4 -6 3 -9 10 -5 16 7 12 15 48 10 46 -1 0 -10 -9 -19 -20z"/>
<path d="M9704 4675 c3 -8 0 -15 -6 -15 -6 0 -9 -3 -5 -6 3 -3 14 -1 24 5 14
8 14 10 3 11 -13 0 -13 1 0 10 13 8 12 10 -4 10 -12 0 -16 -5 -12 -15z"/>
<path d="M9700 4630 c8 -5 20 -10 25 -10 6 0 3 5 -5 10 -8 5 -19 10 -25 10 -5
0 -3 -5 5 -10z"/>
<path d="M9696 4582 c-2 -4 0 -14 6 -22 8 -12 9 -11 4 4 -5 14 -2 17 9 12 9
-3 13 -2 10 4 -7 12 -22 13 -29 2z"/>
<path d="M675 4511 c-3 -5 -2 -12 3 -15 5 -3 9 1 9 9 0 17 -3 19 -12 6z"/>
<path d="M9699 4408 c-5 -18 -6 -38 -1 -34 7 8 12 36 6 36 -2 0 -4 -1 -5 -2z"/>
<path d="M560 3960 c0 -5 5 -10 10 -10 6 0 10 5 10 10 0 6 -4 10 -10 10 -5 0
-10 -4 -10 -10z"/>
<path d="M531 3771 c-17 -11 -24 -41 -10 -41 5 0 9 -5 9 -11 0 -5 -6 -7 -12
-3 -7 4 -9 3 -5 -1 4 -5 14 -10 22 -11 13 -2 13 1 1 24 -12 23 -12 28 3 39 19
14 13 17 -8 4z"/>
<path d="M9615 3561 c-3 -5 -2 -12 3 -15 5 -3 9 1 9 9 0 17 -3 19 -12 6z"/>
<path d="M470 3406 c0 -2 7 -7 16 -10 8 -3 12 -2 9 4 -6 10 -25 14 -25 6z"/>
<path d="M9550 3239 c0 -5 5 -7 10 -4 6 3 10 8 10 11 0 2 -4 4 -10 4 -5 0 -10
-5 -10 -11z"/>
<path d="M425 3120 c-3 -5 -1 -10 4 -10 6 0 11 5 11 10 0 6 -2 10 -4 10 -3 0
-8 -4 -11 -10z"/>
<path d="M411 3067 c2 -1 11 -8 20 -15 13 -9 16 -9 16 3 0 8 -9 15 -20 15 -11
0 -18 -1 -16 -3z"/>
<path d="M9486 3051 c-4 -5 2 -15 13 -20 16 -9 19 -8 17 6 -3 20 -21 28 -30
14z"/>
<path d="M375 2740 c-3 -5 -1 -10 4 -10 6 0 11 5 11 10 0 6 -2 10 -4 10 -3 0
-8 -4 -11 -10z"/>
<path d="M375 2631 c-3 -5 -2 -12 3 -15 5 -3 9 1 9 9 0 17 -3 19 -12 6z"/>
<path d="M9295 2340 c-8 -13 3 -30 18 -29 9 0 9 2 0 6 -7 2 -13 9 -13 14 0 6
5 7 12 3 7 -4 8 -3 4 4 -9 15 -13 15 -21 2z"/>
<path d="M413 2313 c0 -6 4 -10 9 -7 4 3 8 0 8 -6 0 -6 5 -8 11 -4 8 5 8 9 -1
14 -9 6 -9 9 1 13 8 3 5 5 -7 4 -11 -1 -21 -7 -21 -14z"/>
<path d="M8779 1467 c-4 -13 -6 -37 -2 -37 2 0 11 6 18 14 12 12 12 15 0 20
-8 3 -15 4 -16 3z"/>
<path d="M1241 1194 c0 -11 3 -14 6 -6 3 7 2 16 -1 19 -3 4 -6 -2 -5 -13z"/>
<path d="M1330 1158 c0 -11 12 -10 30 2 12 7 10 9 -8 7 -12 0 -22 -5 -22 -9z"/>
<path d="M1549 1068 c-8 -24 -3 -45 10 -43 15 2 17 7 13 35 -2 9 -20 15 -23 8z
m19 -33 c-3 -3 -9 2 -12 12 -6 14 -5 15 5 6 7 -7 10 -15 7 -18z"/>
<path d="M1650 998 c0 -4 0 -11 0 -15 0 -15 23 -8 25 8 2 9 -4 16 -11 16 -8 0
-14 -4 -14 -9z"/>
<path d="M2462 694 c-16 -17 -15 -21 3 -21 8 0 12 4 9 9 -3 4 -1 8 5 8 5 0 11
-6 14 -12 3 -7 5 -4 4 8 -1 23 -17 27 -35 8z"/>
<path d="M2631 643 c-1 -12 4 -25 9 -28 12 -7 12 2 0 30 -8 19 -9 19 -9 -2z"/>
<path d="M7610 579 c0 -5 5 -7 10 -4 6 3 10 8 10 11 0 2 -4 4 -10 4 -5 0 -10
-5 -10 -11z"/>
<path d="M2770 570 c-9 -6 -10 -10 -3 -10 6 0 15 5 18 10 8 12 4 12 -15 0z"/>
<path d="M7386 542 c-3 -2 -2 -10 1 -18 8 -21 32 -17 30 4 -1 17 -20 25 -31
14z"/>
<path d="M2966 518 c3 -5 10 -6 15 -3 13 9 11 12 -6 12 -8 0 -12 -4 -9 -9z"/>
<path d="M3255 490 c-4 -6 -10 -8 -14 -6 -4 3 -8 -1 -8 -9 0 -13 4 -12 19 2
18 16 22 23 14 23 -3 0 -8 -5 -11 -10z"/>
<path d="M7197 485 c-4 -8 -3 -16 1 -19 4 -3 9 4 9 15 2 23 -3 25 -10 4z"/>
<path d="M3650 441 c0 -7 -4 -9 -10 -6 -6 4 -7 -1 -3 -11 6 -15 7 -15 15 1 6
9 7 19 4 22 -3 4 -6 1 -6 -6z"/>
<path d="M3956 373 c-6 -14 -5 -15 5 -6 7 7 10 15 7 18 -3 3 -9 -2 -12 -12z"/>
<path d="M4387 343 c-3 -5 5 -8 18 -8 13 0 21 3 18 8 -2 4 -10 7 -18 7 -8 0
-16 -3 -18 -7z"/>
<path d="M4502 330 c9 -14 14 -16 20 -7 4 7 8 7 8 2 0 -6 9 -11 21 -12 12 -1
19 3 16 10 -2 7 -12 11 -22 9 -12 -2 -15 1 -9 10 6 10 4 10 -9 -1 -11 -9 -17
-10 -17 -2 0 6 -5 11 -10 11 -6 0 -5 -8 2 -20z"/>
<path d="M5973 337 c-3 -5 -11 -6 -19 -3 -7 3 -11 0 -8 -7 2 -7 14 -13 25 -14
15 -1 19 2 15 15 -5 13 -3 13 9 -2 11 -14 15 -16 15 -5 0 12 2 12 10 -1 6 -10
10 -11 10 -2 0 6 5 12 11 12 5 0 8 -4 5 -8 -3 -5 1 -9 8 -9 7 0 19 10 26 21
10 17 10 19 -1 9 -14 -14 -33 -18 -26 -5 3 4 -13 7 -35 7 -22 1 -42 -3 -45 -8z"/>
<path d="M6111 324 c0 -11 3 -14 6 -6 3 7 2 16 -1 19 -3 4 -6 -2 -5 -13z"/>
<path d="M6176 327 c3 -10 9 -15 12 -12 3 3 0 11 -7 18 -10 9 -11 8 -5 -6z"/>
<path d="M4440 322 c0 -5 7 -9 15 -9 8 0 12 4 9 9 -3 4 -9 8 -15 8 -5 0 -9 -4
-9 -8z"/>
<path d="M5390 279 c0 -5 5 -7 10 -4 6 3 10 8 10 11 0 2 -4 4 -10 4 -5 0 -10
-5 -10 -11z"/>
</g>
</svg>
