<svg version="1.1" xmlns="http://www.w3.org/2000/svg" xmlns:xlink="http://www.w3.org/1999/xlink" width="272.36459" height="266.23012" viewBox="0,0,272.36459,266.23012"><g transform="translate(-189.257,-47.39296)"><g data-paper-data="{&quot;isPaintingLayer&quot;:true}" fill-rule="nonzero" stroke-dasharray="" stroke-dashoffset="0" style="mix-blend-mode: normal"><path d="M446.45868,225.50584c-15.73789,100.04608 -95.77908,87.10383 -173.18472,78.15195c-77.40564,-8.95188 -91.91001,-33.89712 -76.2763,-104.41101c15.63371,-70.51389 65.74079,-121.16566 146.30045,-119.41618c80.55966,1.74948 118.89846,45.62915 103.16057,145.67524z" fill="#f7aa32" stroke="none" stroke-width="1.99937" stroke-linecap="round" stroke-linejoin="round" stroke-miterlimit="10"/><path d="M413.32225,283.02567c17.54972,16.75014 -61.87992,40.76271 -145.67523,23.75819c-83.79532,-17.00452 -80.65613,-55.15445 -76.90152,-74.40067c3.75461,-19.24621 66.90421,-38.92141 120.66662,-23.75818c53.76241,15.16322 71.31853,51.38417 101.91014,74.40066z" fill="#fbede4" stroke="none" stroke-width="1.99937" stroke-linecap="round" stroke-linejoin="round" stroke-miterlimit="10"/><path d="M266.34626,158.21211c-1.32503,10.96977 -8.79067,19.60689 -18.4478,19.14199c-9.65714,-0.46489 -19.44445,-10.169 -16.52378,-20.82552c3.24185,-11.82837 12.89536,-17.98116 18.4478,-19.142c13.81887,-2.88907 18.00089,8.59658 16.52378,20.82552z" fill="#2c2c2b" stroke="none" stroke-width="1.99937" stroke-linecap="round" stroke-linejoin="round" stroke-miterlimit="10"/><path d="M296.37813,205.58537c-1.61359,10.93105 -8.30337,18.04482 -19.35288,18.04482c-11.04951,0 -19.75219,-8.96033 -20.0069,-20.0069c-0.23856,-10.34645 9.52704,-18.29795 20.57654,-18.29795c11.0495,0 20.05615,11.63675 18.78323,20.26003z" fill="#2c2c2b" stroke="none" stroke-width="1.99937" stroke-linecap="round" stroke-linejoin="round" stroke-miterlimit="10"/><path d="M306.41039,234.25886c-16.09035,1.68057 -35.12547,8.85018 -31.886,-18.13125c-6.96228,22.834 -18.19542,16.99019 -28.1347,14.37996" fill="none" stroke="#2c2c2b" stroke-width="18" stroke-linecap="round" stroke-linejoin="round" stroke-miterlimit="4"/><path d="M341.14777,165.68312c-1.32503,10.96977 -8.79067,19.60689 -18.4478,19.14199c-9.65714,-0.46489 -19.44445,-10.169 -16.52378,-20.82552c3.24185,-11.82837 12.89536,-17.98116 18.4478,-19.142c13.81887,-2.88907 18.00089,8.59658 16.52378,20.82552z" fill="#2c2c2b" stroke="none" stroke-width="1.99937" stroke-linecap="round" stroke-linejoin="round" stroke-miterlimit="10"/><path d="M328.97749,80.9701l-78.48684,29.62748c2.54077,-19.92491 14.76491,-57.01732 34.82529,-62.37365c20.06037,-5.35633 34.2858,16.30616 43.66155,32.74616z" fill="#f7aa32" stroke="none" stroke-width="18" stroke-linecap="round" stroke-linejoin="round" stroke-miterlimit="4"/><path d="M390.31159,87.72725c14.49127,-8.36227 33.01206,-25.50965 49.89892,-11.95495c16.88687,13.5547 9.56185,45.55928 4.67802,68.61101z" fill="#f7aa32" stroke="none" stroke-width="18" stroke-linecap="round" stroke-linejoin="round" stroke-miterlimit="4"/><g stroke="none" stroke-width="1" stroke-linecap="butt" stroke-linejoin="miter" stroke-miterlimit="10"><path d="M454.43259,237.90739h-101.18803c-3.9691,0 -7.189,-3.21991 -7.189,-7.189v-23.47983c0,-3.9691 3.21991,-7.189 7.189,-7.189h101.18604c3.97109,0 7.191,3.21991 7.191,7.189v23.47784c0,3.97109 -3.21991,7.191 -7.189,7.191z" fill="#556080"/><path d="M454.43259,275.76523h-101.18803c-3.9691,0 -7.189,-3.21991 -7.189,-7.189v-23.47983c0,-3.9691 3.21991,-7.189 7.189,-7.189h101.18604c3.97109,0 7.191,3.21991 7.191,7.189v23.47784c0,3.97109 -3.21991,7.191 -7.189,7.191z" fill="#38454f"/><path d="M454.43259,313.62307h-101.18803c-3.9691,0 -7.189,-3.21991 -7.189,-7.189v-23.47983c0,-3.9691 3.21991,-7.189 7.189,-7.189h101.18604c3.97109,0 7.191,3.21991 7.191,7.189v23.47784c0,3.97109 -3.21991,7.191 -7.189,7.191z" fill="#556080"/><path d="M358.01066,218.97847c0,-3.85153 3.12229,-6.97381 6.97381,-6.97381c3.85153,0 6.97381,3.12229 6.97381,6.97381c0,3.85153 -3.12229,6.97381 -6.97381,6.97381c-3.85153,0 -6.97381,-3.12229 -6.97381,-6.97381z" fill="#8697cb"/><path d="M441.69642,215.98969c0,-1.10044 0.89208,-1.99252 1.99252,-1.99252c1.10044,0 1.99252,0.89208 1.99252,1.99252c0,1.10044 -0.89208,1.99252 -1.99252,1.99252c-1.10044,0 -1.99252,-0.89208 -1.99252,-1.99252z" fill="#8697cb"/><path d="M433.72634,215.98969c0,-1.10044 0.89208,-1.99252 1.99252,-1.99252c1.10044,0 1.99252,0.89208 1.99252,1.99252c0,1.10044 -0.89208,1.99252 -1.99252,1.99252c-1.10044,0 -1.99252,-0.89208 -1.99252,-1.99252z" fill="#8697cb"/><path d="M445.68145,221.96725c0,-1.10044 0.89208,-1.99252 1.99252,-1.99252c1.10044,0 1.99252,0.89208 1.99252,1.99252c0,1.10044 -0.89208,1.99252 -1.99252,1.99252c-1.10044,0 -1.99252,-0.89208 -1.99252,-1.99252z" fill="#8697cb"/><path d="M437.71138,221.96725c0,-1.10044 0.89208,-1.99252 1.99252,-1.99252c1.10044,0 1.99252,0.89208 1.99252,1.99252c0,1.10044 -0.89208,1.99252 -1.99252,1.99252c-1.10044,0 -1.99252,-0.89208 -1.99252,-1.99252z" fill="#8697cb"/><path d="M425.75627,215.98969c0,-1.10044 0.89208,-1.99252 1.99252,-1.99252c1.10044,0 1.99252,0.89208 1.99252,1.99252c0,1.10044 -0.89208,1.99252 -1.99252,1.99252c-1.10044,0 -1.99252,-0.89208 -1.99252,-1.99252z" fill="#8697cb"/><path d="M429.74131,221.96725c0,-1.10044 0.89208,-1.99252 1.99252,-1.99252c1.10044,0 1.99252,0.89208 1.99252,1.99252c0,1.10044 -0.89208,1.99252 -1.99252,1.99252c-1.10044,0 -1.99252,-0.89208 -1.99252,-1.99252z" fill="#8697cb"/><path d="M417.7862,215.98969c0,-1.10044 0.89208,-1.99252 1.99252,-1.99252c1.10044,0 1.99252,0.89208 1.99252,1.99252c0,1.10044 -0.89208,1.99252 -1.99252,1.99252c-1.10044,0 -1.99252,-0.89208 -1.99252,-1.99252z" fill="#8697cb"/><path d="M421.77124,221.96725c0,-1.10044 0.89208,-1.99252 1.99252,-1.99252c1.10044,0 1.99252,0.89208 1.99252,1.99252c0,1.10044 -0.89208,1.99252 -1.99252,1.99252c-1.10044,0 -1.99252,-0.89208 -1.99252,-1.99252z" fill="#8697cb"/><path d="M409.81613,215.98969c0,-1.10044 0.89208,-1.99252 1.99252,-1.99252c1.10044,0 1.99252,0.89208 1.99252,1.99252c0,1.10044 -0.89208,1.99252 -1.99252,1.99252c-1.10044,0 -1.99252,-0.89208 -1.99252,-1.99252z" fill="#8697cb"/><path d="M413.80117,221.96725c0,-1.10044 0.89208,-1.99252 1.99252,-1.99252c1.10044,0 1.99252,0.89208 1.99252,1.99252c0,1.10044 -0.89208,1.99252 -1.99252,1.99252c-1.10044,0 -1.99252,-0.89208 -1.99252,-1.99252z" fill="#8697cb"/><path d="M358.01066,256.83631c0,-3.85153 3.12229,-6.97381 6.97381,-6.97381c3.85153,0 6.97381,3.12229 6.97381,6.97381c0,3.85153 -3.12229,6.97381 -6.97381,6.97381c-3.85153,0 -6.97381,-3.12229 -6.97381,-6.97381z" fill="#8697cb"/><path d="M441.69642,253.84753c0,-1.10044 0.89208,-1.99252 1.99252,-1.99252c1.10044,0 1.99252,0.89208 1.99252,1.99252c0,1.10044 -0.89208,1.99252 -1.99252,1.99252c-1.10044,0 -1.99252,-0.89208 -1.99252,-1.99252z" fill="#8697cb"/><path d="M433.72634,253.84753c0,-1.10044 0.89208,-1.99252 1.99252,-1.99252c1.10044,0 1.99252,0.89208 1.99252,1.99252c0,1.10044 -0.89208,1.99252 -1.99252,1.99252c-1.10044,0 -1.99252,-0.89208 -1.99252,-1.99252z" fill="#8697cb"/><path d="M445.68145,259.82509c0,-1.10044 0.89208,-1.99252 1.99252,-1.99252c1.10044,0 1.99252,0.89208 1.99252,1.99252c0,1.10044 -0.89208,1.99252 -1.99252,1.99252c-1.10044,0 -1.99252,-0.89208 -1.99252,-1.99252z" fill="#8697cb"/><path d="M437.71138,259.82509c0,-1.10044 0.89208,-1.99252 1.99252,-1.99252c1.10044,0 1.99252,0.89208 1.99252,1.99252c0,1.10044 -0.89208,1.99252 -1.99252,1.99252c-1.10044,0 -1.99252,-0.89208 -1.99252,-1.99252z" fill="#8697cb"/><path d="M425.75627,253.84753c0,-1.10044 0.89208,-1.99252 1.99252,-1.99252c1.10044,0 1.99252,0.89208 1.99252,1.99252c0,1.10044 -0.89208,1.99252 -1.99252,1.99252c-1.10044,0 -1.99252,-0.89208 -1.99252,-1.99252z" fill="#8697cb"/><path d="M429.74131,259.82509c0,-1.10044 0.89208,-1.99252 1.99252,-1.99252c1.10044,0 1.99252,0.89208 1.99252,1.99252c0,1.10044 -0.89208,1.99252 -1.99252,1.99252c-1.10044,0 -1.99252,-0.89208 -1.99252,-1.99252z" fill="#8697cb"/><path d="M417.7862,253.84753c0,-1.10044 0.89208,-1.99252 1.99252,-1.99252c1.10044,0 1.99252,0.89208 1.99252,1.99252c0,1.10044 -0.89208,1.99252 -1.99252,1.99252c-1.10044,0 -1.99252,-0.89208 -1.99252,-1.99252z" fill="#8697cb"/><path d="M421.77124,259.82509c0,-1.10044 0.89208,-1.99252 1.99252,-1.99252c1.10044,0 1.99252,0.89208 1.99252,1.99252c0,1.10044 -0.89208,1.99252 -1.99252,1.99252c-1.10044,0 -1.99252,-0.89208 -1.99252,-1.99252z" fill="#8697cb"/><path d="M409.81613,253.84753c0,-1.10044 0.89208,-1.99252 1.99252,-1.99252c1.10044,0 1.99252,0.89208 1.99252,1.99252c0,1.10044 -0.89208,1.99252 -1.99252,1.99252c-1.10044,0 -1.99252,-0.89208 -1.99252,-1.99252z" fill="#8697cb"/><path d="M413.80117,259.82509c0,-1.10044 0.89208,-1.99252 1.99252,-1.99252c1.10044,0 1.99252,0.89208 1.99252,1.99252c0,1.10044 -0.89208,1.99252 -1.99252,1.99252c-1.10044,0 -1.99252,-0.89208 -1.99252,-1.99252z" fill="#8697cb"/><path d="M358.01066,294.69415c0,-3.85153 3.12229,-6.97381 6.97381,-6.97381c3.85153,0 6.97381,3.12229 6.97381,6.97381c0,3.85153 -3.12229,6.97381 -6.97381,6.97381c-3.85153,0 -6.97381,-3.12229 -6.97381,-6.97381z" fill="#8697cb"/><path d="M441.69642,291.70536c0,-1.10044 0.89208,-1.99252 1.99252,-1.99252c1.10044,0 1.99252,0.89208 1.99252,1.99252c0,1.10044 -0.89208,1.99252 -1.99252,1.99252c-1.10044,0 -1.99252,-0.89208 -1.99252,-1.99252z" fill="#8697cb"/><path d="M433.72634,291.70536c0,-1.10044 0.89208,-1.99252 1.99252,-1.99252c1.10044,0 1.99252,0.89208 1.99252,1.99252c0,1.10044 -0.89208,1.99252 -1.99252,1.99252c-1.10044,0 -1.99252,-0.89208 -1.99252,-1.99252z" fill="#8697cb"/><path d="M445.68145,297.68293c0,-1.10044 0.89208,-1.99252 1.99252,-1.99252c1.10044,0 1.99252,0.89208 1.99252,1.99252c0,1.10044 -0.89208,1.99252 -1.99252,1.99252c-1.10044,0 -1.99252,-0.89208 -1.99252,-1.99252z" fill="#8697cb"/><path d="M437.71138,297.68293c0,-1.10044 0.89208,-1.99252 1.99252,-1.99252c1.10044,0 1.99252,0.89208 1.99252,1.99252c0,1.10044 -0.89208,1.99252 -1.99252,1.99252c-1.10044,0 -1.99252,-0.89208 -1.99252,-1.99252z" fill="#8697cb"/><path d="M425.75627,291.70536c0,-1.10044 0.89208,-1.99252 1.99252,-1.99252c1.10044,0 1.99252,0.89208 1.99252,1.99252c0,1.10044 -0.89208,1.99252 -1.99252,1.99252c-1.10044,0 -1.99252,-0.89208 -1.99252,-1.99252z" fill="#8697cb"/><path d="M429.74131,297.68293c0,-1.10044 0.89208,-1.99252 1.99252,-1.99252c1.10044,0 1.99252,0.89208 1.99252,1.99252c0,1.10044 -0.89208,1.99252 -1.99252,1.99252c-1.10044,0 -1.99252,-0.89208 -1.99252,-1.99252z" fill="#8697cb"/><path d="M417.7862,291.70536c0,-1.10044 0.89208,-1.99252 1.99252,-1.99252c1.10044,0 1.99252,0.89208 1.99252,1.99252c0,1.10044 -0.89208,1.99252 -1.99252,1.99252c-1.10044,0 -1.99252,-0.89208 -1.99252,-1.99252z" fill="#8697cb"/><path d="M421.77124,297.68293c0,-1.10044 0.89208,-1.99252 1.99252,-1.99252c1.10044,0 1.99252,0.89208 1.99252,1.99252c0,1.10044 -0.89208,1.99252 -1.99252,1.99252c-1.10044,0 -1.99252,-0.89208 -1.99252,-1.99252z" fill="#8697cb"/><path d="M409.81613,291.70536c0,-1.10044 0.89208,-1.99252 1.99252,-1.99252c1.10044,0 1.99252,0.89208 1.99252,1.99252c0,1.10044 -0.89208,1.99252 -1.99252,1.99252c-1.10044,0 -1.99252,-0.89208 -1.99252,-1.99252z" fill="#8697cb"/><path d="M413.80117,297.68293c0,-1.10044 0.89208,-1.99252 1.99252,-1.99252c1.10044,0 1.99252,0.89208 1.99252,1.99252c0,1.10044 -0.89208,1.99252 -1.99252,1.99252c-1.10044,0 -1.99252,-0.89208 -1.99252,-1.99252z" fill="#8697cb"/></g></g></g></svg>