<svg version="1.1" xmlns="http://www.w3.org/2000/svg" xmlns:xlink="http://www.w3.org/1999/xlink" width="471.00001" height="252.77062" viewBox="0,0,471.00001,252.77062"><g transform="translate(-84.5,-53.61469)"><g data-paper-data="{&quot;isPaintingLayer&quot;:true}" fill-rule="nonzero" stroke="none" stroke-width="1" stroke-linecap="butt" stroke-linejoin="miter" stroke-miterlimit="10" stroke-dasharray="" stroke-dashoffset="0" style="mix-blend-mode: normal"><path d="M433.8247,306.38531c-32.18531,0 -62.80031,-12.55969 -86.35031,-35.325c-3.13969,-3.13969 -3.13969,-7.84969 0,-10.99031c3.13969,-3.13969 7.84969,-3.13969 10.99031,0c19.62469,19.62469 46.31531,31.39969 74.57531,31.39969c58.09031,0 105.975,-47.88469 105.975,-105.975c0,-58.09031 -47.88469,-105.975 -105.975,-105.975c-58.09031,0 -105.19031,47.1 -105.19031,105.19031c0,66.72469 -54.94969,121.67531 -121.67531,121.67531c-66.72561,0 -121.67439,-54.165 -121.67439,-121.67531c0,-67.51031 54.94969,-121.67531 121.67531,-121.67531c24.33469,0 47.88469,7.065 67.51031,20.41031c6.28031,4.71 12.55969,9.42 18.84,14.91469c3.13969,3.13969 3.13969,7.84969 0,10.99031c-3.13969,3.13969 -7.84969,3.13969 -10.99031,0c-5.49469,-3.92531 -10.99031,-8.63531 -16.485,-12.55969c-17.26969,-11.775 -37.68,-18.05531 -58.875,-18.05531c-58.09031,0 -105.975,47.88469 -105.975,105.975c0,58.09031 47.88469,105.975 105.975,105.975c58.09031,0 105.975,-47.1 105.975,-105.975c0,-66.72469 54.94969,-121.67531 121.67531,-121.67531c66.72561,0 121.67439,54.95061 121.67439,121.67531c0,66.72469 -54.94969,121.67531 -121.67531,121.67531z" fill="#2c2c2b"/><path d="M433.8247,296.96531c-32.18531,0 -62.80031,-12.55969 -86.35031,-35.325c-3.13969,-3.13969 -3.13969,-7.84969 0,-10.99031c3.13969,-3.13969 7.84969,-3.13969 10.99031,0c19.62469,19.62469 46.31531,31.39969 74.57531,31.39969c58.875,-0.78469 106.75969,-48.67031 106.75969,-106.75969c0,-58.08939 -47.88469,-105.975 -105.975,-105.975c-58.09031,0 -105.975,47.88469 -105.975,105.975c0,66.72469 -54.94969,121.67531 -121.67531,121.67531c-66.72561,0 -121.67439,-54.95061 -121.67439,-121.67531c0,-66.72469 54.94969,-121.67531 121.67531,-121.67531c24.33469,0 47.88469,7.065 67.51031,20.41031c6.28031,4.71 12.55969,9.42 18.84,14.91469c3.13969,3.13969 3.13969,7.84969 0,10.99031c-3.13969,3.14061 -7.84969,3.13969 -10.99031,0c-4.71,-4.71 -10.20469,-9.42 -16.485,-13.34531c-17.26969,-10.99031 -37.68,-17.26969 -58.875,-17.26969c-58.09031,0 -105.975,47.88469 -105.975,105.975c0,58.09031 47.88469,105.975 105.975,105.975c58.09031,0 105.975,-47.88469 105.975,-105.975c0,-66.72469 54.94969,-121.67531 121.67531,-121.67531c66.72561,0 121.67439,54.95061 121.67439,121.67531c0,66.72469 -54.94969,121.67531 -121.67531,121.67531z" fill="#f7aa32"/><path d="M256.83363,161.12969v29.53846c0,5.44222 -4.09971,9.84615 -9.16598,9.84615h-18.33195v19.69231c0,5.44222 -4.09971,9.84615 -9.16598,9.84615h-27.49793c-5.06626,0 -9.16598,-4.40394 -9.16598,-9.84615v-19.69231h-18.33195c-5.06626,0 -9.16598,-4.40394 -9.16598,-9.84615v-29.53846c0,-5.44222 4.09971,-9.84615 9.16598,-9.84615h18.33195v-19.69231c0,-5.44222 4.09971,-9.84615 9.16598,-9.84615h27.49793c5.06626,0 9.16598,4.40394 9.16598,9.84615v19.69231h18.33195c5.06649,0 9.16598,4.40394 9.16598,9.84615zM238.50168,170.97585h-18.33195c-5.06626,0 -9.16598,-4.40394 -9.16598,-9.84615v-19.69231h-9.16598v19.69231c0,5.44222 -4.09971,9.84615 -9.16598,9.84615h-18.33195v9.84615h18.33195c5.06626,0 9.16598,4.40394 9.16598,9.84615v19.69231h9.16598v-19.69231c0,-5.44222 4.09971,-9.84615 9.16598,-9.84615h18.33195z" fill="#e2e3e5"/><path d="M436.1573,159.05277c-15.16328,0 -27.49793,-13.24997 -27.49793,-29.53846c0,-16.28849 12.33465,-29.53846 27.49793,-29.53846c15.16328,0 27.49793,13.24997 27.49793,29.53846c0,16.28849 -12.33465,29.53846 -27.49793,29.53846zM445.32328,129.51431c0,-5.43262 -4.10865,-9.84615 -9.16598,-9.84615c-5.05733,0 -9.16598,4.41354 -9.16598,9.84615c0,5.43262 4.10865,9.84615 9.16598,9.84615c5.05733,0 9.16598,-4.41354 9.16598,-9.84615z" fill="#e2e3e5"/><path d="M523.31913,177.59123c0,16.28849 -12.33465,29.53846 -27.49793,29.53846c-15.16328,0 -27.49793,-13.24997 -27.49793,-29.53846c0,-16.28849 12.33465,-29.53846 27.49793,-29.53846c15.16328,0 27.49793,13.24997 27.49793,29.53846zM504.98719,177.59123c0,-5.43262 -4.10865,-9.84615 -9.16598,-9.84615c-5.05733,0 -9.16598,4.41354 -9.16598,9.84615c0,5.43262 4.10865,9.84615 9.16598,9.84615c5.05733,0 9.16598,-4.41354 9.16598,-9.84615z" fill="#e2e3e5"/><path d="M376.1573,206.05277c-15.16328,0 -27.49793,-13.24997 -27.49793,-29.53846c0,-16.28849 12.33465,-29.53846 27.49793,-29.53846c15.16328,0 27.49793,13.24997 27.49793,29.53846c0,16.28849 -12.33465,29.53846 -27.49793,29.53846zM385.32328,176.51431c0,-5.43262 -4.10865,-9.84615 -9.16598,-9.84615c-5.05733,0 -9.16598,4.41354 -9.16598,9.84615c0,5.43262 4.10865,9.84615 9.16598,9.84615c5.05733,0 9.16598,-4.41354 9.16598,-9.84615z" fill="#e2e3e5"/><path d="M466.31914,218.59123c0,16.28849 -12.33465,29.53846 -27.49793,29.53846c-15.16328,0 -27.49793,-13.24997 -27.49793,-29.53846c0,-16.28849 12.33465,-29.53846 27.49793,-29.53846c15.16328,0 27.49793,13.24997 27.49793,29.53846zM447.98719,218.59123c0,-5.43262 -4.10865,-9.84615 -9.16598,-9.84615c-5.05733,0 -9.16598,4.41354 -9.16598,9.84615c0,5.43262 4.10865,9.84615 9.16598,9.84615c5.05733,0 9.16598,-4.41354 9.16598,-9.84615z" fill="#e2e3e5"/></g></g></svg>